<svg width="392" height="131" viewBox="0 0 392 131" fill="none" xmlns="http://www.w3.org/2000/svg">
<path d="M56.6223 55.6611C56.6223 44.6155 65.5766 35.6611 76.6223 35.6611H316.104C327.149 35.6611 336.104 44.6154 336.104 55.6611V75.3389C336.104 86.3846 327.149 95.3389 316.104 95.3389H56.6223V55.6611Z" fill="#27303F"/>
<rect x="336.104" y="29.1111" width="13.0667" height="13.1" rx="6.53333" fill="#27303F"/>
<line x1="71.1406" y1="89.2444" x2="321.585" y2="89.2444" stroke="white" stroke-width="2"/>
<g clip-path="url(#clip0_1537_133)">
<path d="M47.2461 39.0935C47.2461 39.0935 46.7896 36.7904 46.8953 35.7647C47.0011 34.7389 47.3288 33.5815 48.5001 32.8861C49.8967 32.0579 67.3467 25.9963 68.5795 25.6419C69.8234 25.2874 70.7574 25.3841 71.4812 25.9713C72.0331 26.4215 72.4047 27.0784 72.9364 28.0598C73.2173 28.5769 73.9296 30.014 73.9296 30.014L47.2461 39.0935Z" fill="#9AC2FF"/>
<path d="M58.1765 41.8686L48.297 43.6466C48.297 43.6466 47.1174 39.7082 47.1615 38.551C47.2057 37.3939 47.491 36.6109 48.8686 35.8343C50.2462 35.0578 53.9594 33.8473 59.4565 31.8274C64.9536 29.8075 69.9285 28.4082 70.8074 28.1504C71.6863 27.8926 72.6455 28.0289 73.1852 28.7492C73.7249 29.4695 74.237 30.5216 75.1119 32.4057C75.4296 33.0893 75.8456 34.4489 75.8456 34.4489L65.4167 38.9977L58.1765 41.8686Z" fill="#F1EDEC"/>
<path d="M48.5775 44.6878C48.2805 43.6525 47.9109 42.5496 48.4468 41.6209C48.9077 40.8275 50.0572 40.5329 51.3532 40.01C52.5523 39.5293 55.6454 38.4543 61.4649 36.3753C67.2845 34.2963 72.2139 32.6327 73.1248 32.3073C74.0357 31.9819 75.0645 32.4189 75.3987 33.0443C75.7362 33.6684 85.212 61.7784 85.3783 62.4038C85.5446 63.0292 85.7757 64.3201 84.4928 64.8906C83.2145 65.4633 62.5231 72.855 61.6253 73.0597C60.7276 73.2644 59.6988 72.775 59.0425 71.4115C58.3862 70.048 48.8125 45.5169 48.5775 44.6878Z" fill="#C9D2D8"/>
<path d="M52.7143 48.5764C53.5115 48.4039 52.9745 44.8871 53.6955 43.7651C54.4178 42.6463 56.1331 41.5807 55.8616 40.817C55.7259 40.4351 54.5215 40.8691 53.41 41.2812C52.2985 41.6932 51.3049 41.9434 50.967 42.7152C50.5951 43.5591 50.8954 44.5932 51.2168 45.6235C51.7268 47.2788 52.2215 48.6813 52.7143 48.5764Z" fill="#F1EDEC"/>
<path d="M77.1677 65.1498C77.366 65.7077 77.8383 65.7448 80.0138 64.8816C81.8528 64.1535 82.6898 63.5888 83.0058 62.7237C83.3228 61.862 82.9795 60.4129 82.4079 58.731C82.0092 57.5673 81.5828 56.4623 80.9999 56.6705C80.1652 56.9687 80.8472 58.8769 80.5626 60.1873C80.0059 62.7588 76.9034 64.406 77.1677 65.1498Z" fill="#F1EDEC"/>
<path d="M62.7755 44.9673C62.7755 44.9673 62.2696 44.321 61.784 44.0154C61.2984 43.7099 60.968 43.652 60.9116 43.399C60.8553 43.1459 61.2742 42.0981 61.8101 41.873C62.346 41.6479 64.1485 41.7936 64.8612 42.0554C65.5739 42.3173 65.8613 42.9368 65.9613 43.3128C66.0613 43.6887 65.9472 44.1448 65.9472 44.1448C65.9472 44.1448 71.7641 61.0888 72.0356 61.8526C72.3071 62.6163 72.6241 64.0861 71.6503 64.4339C70.6732 64.783 70.1119 63.6026 69.8024 62.9946C69.2337 61.888 62.7755 44.9673 62.7755 44.9673Z" fill="#AD1960"/>
<path d="M56.5845 50.1391C56.7612 50.7832 61.719 58.3154 61.9575 58.5034C62.1961 58.6914 63.1696 59.3091 63.6439 58.9002C64.1149 58.4924 61.3491 52.4225 60.872 51.3954C60.2833 50.1275 59.3535 49.1499 58.1253 49.0759C56.898 48.9942 56.4621 49.7 56.5845 50.1391Z" fill="#AD1960"/>
<path d="M59.1385 49.9526C59.1385 49.9526 63.9196 47.9976 65.8759 47.1267C67.3901 46.451 69.5432 45.4723 70.1686 45.1104C70.794 44.7485 71.5571 43.9969 71.8128 43.9392C72.0685 43.8815 74.3418 44.1547 74.3855 44.2776C74.4292 44.4004 74.6835 44.927 74.6378 45.0818C74.592 45.2367 74.168 46.1441 74.154 46.8713C74.1366 47.5998 74.6037 52.2642 74.5162 52.6061C74.4434 52.9053 72.5474 52.8641 72.5474 52.8641C72.5474 52.8641 71.7816 48.4935 71.7466 48.1954C71.7116 47.8973 71.2333 47.6228 71.2333 47.6228L60.3345 51.7632L59.1385 49.9526Z" fill="#AD1960"/>
<path d="M62.2651 55.9871C62.2651 55.9871 70.7854 52.7375 71.4545 52.4985C72.1236 52.2595 73.3777 51.5345 73.8453 51.506C74.3129 51.4774 75.3729 51.7499 75.6807 52.2274C75.9885 52.705 76.0873 53.1824 75.6228 53.4194C75.1584 53.6565 63.0603 57.9409 63.0603 57.9409L62.2651 55.9871Z" fill="#AD1960"/>
</g>
<path d="M117.778 73.5312C117.674 73.5417 117.575 73.5208 117.481 73.4688C117.398 73.4062 117.356 73.3385 117.356 73.2656C117.356 73.1094 117.497 72.974 117.778 72.8594C119.789 71.9948 121.684 70.9583 123.466 69.75C125.257 68.5312 126.773 67.3125 128.012 66.0938C127.919 66.0312 127.82 65.8646 127.716 65.5938L127.622 65.6406C126.768 65.9635 126.012 66.3229 125.356 66.7188C124.7 67.1042 124.033 67.5365 123.356 68.0156C123.148 68.1719 122.955 68.3021 122.778 68.4062C122.611 68.5104 122.497 68.5625 122.434 68.5625C122.299 68.5625 122.091 68.4948 121.809 68.3594C121.528 68.2135 121.247 68 120.966 67.7188C120.695 67.4271 120.497 67.0729 120.372 66.6562C120.33 66.5 120.367 66.3229 120.481 66.125C120.596 65.9271 120.716 65.8333 120.841 65.8438C121.049 65.8542 121.455 65.8177 122.059 65.7344C122.549 65.1615 122.94 64.5312 123.231 63.8438C123.523 63.1562 123.637 62.6354 123.575 62.2812C123.565 62.1979 123.445 62.0521 123.216 61.8438C123.122 61.75 123.033 61.6615 122.95 61.5781C122.877 61.4844 122.841 61.4115 122.841 61.3594C122.841 61.3177 122.966 61.2396 123.216 61.125C123.476 61 123.783 60.8646 124.137 60.7188C123.637 60.2396 123.294 59.8333 123.106 59.5C123.065 59.4271 123.044 59.3594 123.044 59.2969C123.044 59.224 123.065 59.1667 123.106 59.125C123.158 59.0833 123.221 59.0625 123.294 59.0625L126.247 58.7656C126.914 57.8281 127.476 56.9635 127.934 56.1719C128.403 55.3802 128.637 54.875 128.637 54.6562C128.637 54.5625 128.611 54.4792 128.559 54.4062C128.518 54.3229 128.44 54.2135 128.325 54.0781C128.21 53.9427 128.127 53.8385 128.075 53.7656C128.033 53.6927 128.012 53.6094 128.012 53.5156C128.012 53.4427 128.137 53.3385 128.387 53.2031C128.637 53.0573 128.914 52.9271 129.216 52.8125C129.518 52.6979 129.747 52.6406 129.903 52.6406C130.08 52.6406 130.429 52.7917 130.95 53.0938C131.471 53.3958 131.945 53.7292 132.372 54.0938C132.809 54.4479 133.028 54.724 133.028 54.9219C133.028 55.1406 132.966 55.3281 132.841 55.4844C132.726 55.6302 132.533 55.8125 132.262 56.0312C132.033 56.2188 131.856 56.375 131.731 56.5C131.398 56.8333 130.726 57.4583 129.716 58.375C132.299 58.0938 134.174 57.875 135.341 57.7188C134.924 57.0625 134.539 56.5781 134.184 56.2656C133.976 56.0781 133.872 55.9219 133.872 55.7969C133.872 55.651 134.007 55.5781 134.278 55.5781C134.914 55.5781 135.643 55.75 136.466 56.0938C137.299 56.4375 138.012 56.8438 138.606 57.3125C139.21 57.7708 139.512 58.1562 139.512 58.4688C139.512 58.7708 139.372 59.0573 139.091 59.3281C138.809 59.599 138.486 59.8229 138.122 60C137.757 60.1667 137.466 60.25 137.247 60.25C137.184 60.25 137.132 60.2292 137.091 60.1875C137.33 60.3958 137.539 60.6042 137.716 60.8125C137.893 61.0104 137.986 61.1562 137.997 61.25C138.007 61.3958 137.976 61.5208 137.903 61.625C137.841 61.7292 137.726 61.8594 137.559 62.0156L137.216 62.3594C137.007 62.6198 136.794 62.901 136.575 63.2031C136.367 63.4948 136.2 63.7292 136.075 63.9062L138.731 63.4688C138.544 62.9271 138.304 62.4583 138.012 62.0625C137.992 62.0208 137.981 61.9948 137.981 61.9844C137.981 61.9323 138.018 61.8854 138.091 61.8438C138.164 61.8021 138.231 61.7917 138.294 61.8125C139.148 62.1667 139.82 62.5104 140.309 62.8438C140.799 63.1771 141.148 63.5156 141.356 63.8594C141.575 64.2031 141.705 64.5885 141.747 65.0156C141.757 65.0573 141.762 65.1198 141.762 65.2031C141.762 65.4948 141.684 65.7917 141.528 66.0938C141.372 66.3958 141.158 66.6458 140.887 66.8438C140.627 67.0417 140.346 67.1406 140.044 67.1406C139.898 67.1406 139.762 67.1198 139.637 67.0781C139.502 67.0365 139.408 66.9115 139.356 66.7031C139.304 66.4948 139.247 66.151 139.184 65.6719C139.111 65.1094 139.054 64.7292 139.012 64.5312C137.846 64.9583 136.83 65.4219 135.966 65.9219C138.841 67.7552 142.049 68.8385 145.591 69.1719C145.914 69.2135 146.153 69.2865 146.309 69.3906C146.476 69.4844 146.559 69.5938 146.559 69.7188C146.559 69.8021 146.518 69.8802 146.434 69.9531C146.361 70.026 146.257 70.0781 146.122 70.1094C145.205 70.3073 144.408 70.6042 143.731 71C143.065 71.3958 142.377 71.8698 141.669 72.4219C141.304 72.7031 141.023 72.9062 140.825 73.0312C140.637 73.1562 140.471 73.2188 140.325 73.2188C139.992 73.2188 139.44 72.9219 138.669 72.3281C137.908 71.724 136.997 70.7812 135.934 69.5C134.882 68.2083 133.794 66.5938 132.669 64.6562C132.658 64.6354 132.632 64.6146 132.591 64.5938C131.841 65.75 130.736 66.9896 129.278 68.3125C127.82 69.6354 126.091 70.7969 124.091 71.7969C122.091 72.7969 119.986 73.375 117.778 73.5312ZM122.887 79.8438C122.658 79.8438 122.481 79.8021 122.356 79.7188C122.231 79.6458 122.169 79.5573 122.169 79.4531C122.169 79.3802 122.2 79.3125 122.262 79.25C122.325 79.1875 122.419 79.1406 122.544 79.1094C124.387 78.6198 126.242 77.9635 128.106 77.1406C129.971 76.3177 131.533 75.5312 132.794 74.7812C134.054 74.0312 134.679 73.5625 134.669 73.375C134.669 73.2604 134.648 73.1667 134.606 73.0938C134.575 73.0104 134.523 72.9271 134.45 72.8438C134.387 72.7604 134.351 72.6927 134.341 72.6406C133.476 73.2344 132.33 73.7812 130.903 74.2812C129.476 74.7812 127.986 75.0833 126.434 75.1875C126.278 75.1979 126.153 75.1771 126.059 75.125C125.976 75.0729 125.934 75.0104 125.934 74.9375C125.934 74.8333 126.012 74.75 126.169 74.6875C127.294 74.2917 128.387 73.8073 129.45 73.2344C130.512 72.6615 131.382 72.125 132.059 71.625C132.747 71.125 133.085 70.8125 133.075 70.6875C133.075 70.6042 133.059 70.5469 133.028 70.5156C132.997 70.474 132.95 70.4323 132.887 70.3906C132.835 70.3385 132.804 70.2917 132.794 70.25C131.835 70.8333 130.653 71.3802 129.247 71.8906C127.841 72.3906 126.466 72.7083 125.122 72.8438C124.955 72.8542 124.825 72.8385 124.731 72.7969C124.637 72.7448 124.591 72.6771 124.591 72.5938C124.591 72.4792 124.679 72.3802 124.856 72.2969C125.971 71.8073 127.059 71.224 128.122 70.5469C129.195 69.8594 130.075 69.224 130.762 68.6406C131.46 68.0469 131.809 67.6823 131.809 67.5469C131.809 67.4427 131.794 67.3698 131.762 67.3281C131.742 67.2865 131.7 67.2344 131.637 67.1719C131.575 67.099 131.544 67.0365 131.544 66.9844C131.544 66.9115 131.622 66.8385 131.778 66.7656C131.945 66.6927 132.111 66.6562 132.278 66.6562C132.393 66.6562 132.486 66.6771 132.559 66.7188C132.726 66.8021 132.94 66.9635 133.2 67.2031C133.46 67.4323 133.69 67.7031 133.887 68.0156C134.096 68.3177 134.2 68.6198 134.2 68.9219C134.2 69.1719 133.882 69.5156 133.247 69.9531C133.309 69.9323 133.393 69.9219 133.497 69.9219C133.601 69.9219 133.674 69.9323 133.716 69.9531C134.028 70.0677 134.372 70.276 134.747 70.5781C135.132 70.8802 135.335 71.2083 135.356 71.5625C135.377 71.7188 135.21 71.9479 134.856 72.25C135.044 72.1979 135.221 72.1719 135.387 72.1719C135.544 72.1719 135.669 72.1927 135.762 72.2344C135.95 72.3177 136.216 72.5156 136.559 72.8281C136.903 73.1406 137.205 73.4844 137.466 73.8594C137.726 74.224 137.856 74.5312 137.856 74.7812C137.856 75.1042 137.679 75.4531 137.325 75.8281C136.971 76.2031 136.591 76.4948 136.184 76.7031C135.257 77.2031 133.919 77.6979 132.169 78.1875C130.419 78.6771 128.658 79.0729 126.887 79.375C125.127 79.6875 123.794 79.8438 122.887 79.8438ZM124.247 65.3906C125.393 65.1823 126.46 64.9792 127.45 64.7812C127.325 64.3229 127.21 63.9427 127.106 63.6406C127.002 63.3281 126.882 63.0469 126.747 62.7969C126.674 62.8594 126.601 62.9219 126.528 62.9844C126.455 63.0469 126.382 63.1146 126.309 63.1875C125.986 63.5104 125.299 64.2448 124.247 65.3906ZM126.778 61.5C127.007 61.8125 127.122 62.0417 127.122 62.1875C127.57 62.3646 128.028 62.6458 128.497 63.0312C128.976 63.4167 129.361 63.8125 129.653 64.2188C130.143 63.5312 130.387 63.0104 130.387 62.6562C130.387 62.4896 130.361 62.3542 130.309 62.25C130.257 62.1458 130.174 62.0208 130.059 61.875C130.007 61.8125 129.96 61.75 129.919 61.6875C129.877 61.6146 129.856 61.5469 129.856 61.4844C129.856 61.3385 130.012 61.1667 130.325 60.9688C130.637 60.7708 130.893 60.6719 131.091 60.6719C131.257 60.6719 131.523 60.7969 131.887 61.0469C132.252 61.2969 132.58 61.599 132.872 61.9531C133.164 62.3073 133.309 62.6406 133.309 62.9531C133.309 63.1198 133.236 63.375 133.091 63.7188L133.153 63.7656L133.731 64.2656L134.294 64.1875C134.669 63.6354 134.94 63.0417 135.106 62.4062C135.273 61.7604 135.356 61.276 135.356 60.9531C135.356 60.849 135.273 60.724 135.106 60.5781C134.95 60.4427 134.867 60.3281 134.856 60.2344C134.856 60.1927 134.934 60.1146 135.091 60C135.247 59.8854 135.424 59.7812 135.622 59.6875C135.82 59.5938 135.971 59.5469 136.075 59.5469C136.21 59.5469 136.497 59.7188 136.934 60.0625C136.736 59.8646 136.434 59.4427 136.028 58.7969C134.164 59.276 132.596 59.7083 131.325 60.0938C130.054 60.4688 128.794 60.8542 127.544 61.25L126.778 61.5ZM162.103 73.125C161.634 73.125 161.16 72.8542 160.681 72.3125C160.212 71.7604 159.791 71.1771 159.416 70.5625C159.374 70.4792 159.353 70.4167 159.353 70.375C159.353 70.3021 159.374 70.2396 159.416 70.1875C159.468 70.1354 159.53 70.1042 159.603 70.0938C159.978 70.0938 160.275 70.099 160.494 70.1094C160.973 70.1302 161.431 70.1406 161.869 70.1406C162.275 70.1406 162.598 70.1354 162.837 70.125L165.009 70L164.619 68.2031C164.223 66.349 163.884 64.8177 163.603 63.6094C163.322 62.401 163.098 61.6667 162.931 61.4062C162.806 61.1875 162.733 61.0729 162.712 61.0625C162.692 61.0521 162.603 61.0104 162.447 60.9375C162.301 60.8646 162.228 60.7708 162.228 60.6562C162.228 60.4896 162.291 60.2865 162.416 60.0469C162.551 59.8073 162.702 59.599 162.869 59.4219C163.046 59.2448 163.192 59.1562 163.306 59.1562C163.442 59.1562 163.723 59.2448 164.15 59.4219C164.577 59.599 164.936 59.7812 165.228 59.9688C165.749 59.6042 166.207 59.1979 166.603 58.75C167.009 58.3021 167.27 57.8229 167.384 57.3125C167.405 57.2292 167.379 57.1094 167.306 56.9531C167.244 56.7969 167.192 56.6562 167.15 56.5312C167.108 56.4167 167.343 56.3594 167.853 56.3594C168.28 56.3594 168.624 56.3854 168.884 56.4375C169.061 56.4688 169.291 56.5781 169.572 56.7656C169.864 56.9427 170.103 57.1615 170.291 57.4219C170.489 57.6719 170.572 57.9219 170.541 58.1719C170.489 58.474 169.931 58.9375 168.869 59.5625C167.806 60.1771 166.806 60.6771 165.869 61.0625L166.228 62.4688C166.572 62.3333 166.978 62.1354 167.447 61.875C167.593 61.7812 167.733 61.7031 167.869 61.6406C168.004 61.5677 168.114 61.5312 168.197 61.5312C168.343 61.5312 168.53 61.599 168.759 61.7344C168.999 61.8594 169.212 62.0052 169.4 62.1719C169.587 62.3385 169.681 62.4635 169.681 62.5469C169.692 62.6927 169.619 62.8854 169.462 63.125C169.306 63.3542 169.171 63.474 169.056 63.4844C168.942 63.4844 168.598 63.526 168.025 63.6094C167.452 63.6823 166.973 63.7604 166.587 63.8438C166.712 64.3125 166.89 65.0365 167.119 66.0156C167.598 65.8594 168.02 65.6927 168.384 65.5156C168.52 65.4531 168.645 65.401 168.759 65.3594C168.884 65.3073 168.994 65.2812 169.087 65.2812C169.265 65.2812 169.478 65.3385 169.728 65.4531C169.989 65.5677 170.218 65.7031 170.416 65.8594C170.614 66.0156 170.712 66.1458 170.712 66.25C170.723 66.4062 170.671 66.599 170.556 66.8281C170.442 67.0469 170.327 67.1615 170.212 67.1719C169.046 67.1719 168.108 67.2552 167.4 67.4219C167.598 68.4531 167.692 69.25 167.681 69.8125L174.306 69.2812C174.035 68.9688 173.78 68.6354 173.541 68.2812C173.301 67.9167 173.171 67.6406 173.15 67.4531V67.4375C173.15 67.3958 173.166 67.3646 173.197 67.3438C173.228 67.3125 173.265 67.3021 173.306 67.3125C173.4 67.3229 173.525 67.375 173.681 67.4688C174.015 67.625 174.259 67.7031 174.416 67.7031C174.561 67.7031 174.681 67.651 174.775 67.5469C174.9 67.4115 175.067 67 175.275 66.3125C175.483 65.6146 175.666 64.875 175.822 64.0938C175.978 63.3021 176.056 62.7188 176.056 62.3438C176.056 62.1562 176.03 62.0365 175.978 61.9844C175.936 61.9531 175.858 61.9375 175.744 61.9375C175.483 61.9375 175.067 62.0156 174.494 62.1719C174.754 62.5469 174.942 62.8646 175.056 63.125L175.087 63.25C175.087 63.3021 175.067 63.3542 175.025 63.4062C174.983 63.4583 174.936 63.5156 174.884 63.5781C174.634 63.8281 174.452 64.0885 174.337 64.3594C174.129 64.849 173.806 65.4271 173.369 66.0938C172.942 66.75 172.442 67.3854 171.869 68C171.296 68.6042 170.707 69.0781 170.103 69.4219C169.874 69.5469 169.702 69.6094 169.587 69.6094C169.494 69.6094 169.447 69.5729 169.447 69.5C169.447 69.375 169.541 69.2031 169.728 68.9844C170.489 68.099 171.119 67.0677 171.619 65.8906C172.119 64.7031 172.421 63.6667 172.525 62.7812C171.806 63.0104 171.374 63.1406 171.228 63.1719C171.155 63.1823 170.994 63.1302 170.744 63.0156C170.494 62.901 170.249 62.7656 170.009 62.6094C169.78 62.4427 169.64 62.2969 169.587 62.1719L169.572 62.0938C169.572 62 169.614 61.9375 169.697 61.9062C170.332 61.7812 170.931 61.6562 171.494 61.5312L171.509 59.7188C171.509 57.7396 171.395 56.4167 171.166 55.75C171.114 55.5938 171.087 55.4531 171.087 55.3281C171.087 55.0469 171.265 54.901 171.619 54.8906C171.827 54.8906 172.114 54.9792 172.478 55.1562C172.853 55.3333 173.197 55.5469 173.509 55.7969C173.832 56.0365 174.035 56.25 174.119 56.4375C174.16 56.5312 174.181 56.7708 174.181 57.1562C174.587 57.1146 174.874 57.0521 175.041 56.9688C175.145 56.9167 175.259 56.8438 175.384 56.75C175.509 56.6458 175.624 56.5417 175.728 56.4375C175.832 56.3333 175.931 56.2448 176.025 56.1719C176.129 56.0885 176.218 56.0469 176.291 56.0469C176.436 56.0469 176.759 56.1875 177.259 56.4688C177.759 56.75 178.087 56.9531 178.244 57.0781C178.327 57.151 178.369 57.2135 178.369 57.2656C178.369 57.3281 178.348 57.4062 178.306 57.5C178.14 57.8229 177.989 58.0938 177.853 58.3125C177.728 58.5208 177.577 58.6354 177.4 58.6562C177.285 58.6667 176.994 58.6562 176.525 58.625C175.692 58.5729 175.124 58.5469 174.822 58.5469C174.634 58.5469 174.405 58.5573 174.134 58.5781C174.114 58.9948 174.067 59.6667 173.994 60.5938L173.962 60.9375L176.041 60.375C176.614 60.2188 176.91 60.1406 176.931 60.1406C177.077 60.1094 177.259 60.1615 177.478 60.2969C177.707 60.4323 177.921 60.6146 178.119 60.8438C178.327 61.0625 178.468 61.276 178.541 61.4844C178.551 61.5052 178.556 61.5677 178.556 61.6719C178.556 62.0365 178.452 62.7135 178.244 63.7031C178.035 64.6823 177.775 65.6875 177.462 66.7188C177.16 67.75 176.864 68.5417 176.572 69.0938L181.072 68.6875L181.384 66.4375C181.072 66.4896 180.608 66.599 179.994 66.7656C179.744 66.849 179.572 66.8906 179.478 66.8906C179.384 66.8906 179.218 66.7865 178.978 66.5781C178.739 66.3698 178.515 66.1406 178.306 65.8906C178.108 65.6302 178.009 65.4375 178.009 65.3125C178.009 65.2188 178.067 65.1719 178.181 65.1719C178.296 65.1719 178.785 65.125 179.65 65.0312C180.39 64.9375 181.046 64.8698 181.619 64.8281L181.931 62.5938C181.452 62.6562 180.962 62.7656 180.462 62.9219C180.244 62.9948 180.108 63.0312 180.056 63.0312C179.983 63.0312 179.848 62.9271 179.65 62.7188C179.452 62.5 179.27 62.2604 179.103 62C178.936 61.7396 178.853 61.5417 178.853 61.4062C178.853 61.3125 178.9 61.2656 178.994 61.2656C179.129 61.2656 179.499 61.2031 180.103 61.0781C181.176 60.8906 181.874 60.7812 182.197 60.75L182.494 58.6094C182.515 58.474 182.494 58.3698 182.431 58.2969C182.379 58.224 182.259 58.2031 182.072 58.2344C181.957 58.2448 181.681 58.2917 181.244 58.375C181.004 58.4271 180.765 58.474 180.525 58.5156C180.296 58.5573 180.145 58.5729 180.072 58.5625C179.989 58.5521 179.832 58.4688 179.603 58.3125C179.374 58.1458 179.145 57.9531 178.916 57.7344C178.686 57.5156 178.525 57.3177 178.431 57.1406C178.4 57.0781 178.384 57.0104 178.384 56.9375C178.384 56.8333 178.426 56.7448 178.509 56.6719C178.593 56.599 178.707 56.5677 178.853 56.5781C178.926 56.5885 179.041 56.5938 179.197 56.5938C179.624 56.5938 180.03 56.5417 180.416 56.4375C180.801 56.3333 181.228 56.1927 181.697 56.0156C181.905 55.9427 182.098 55.8802 182.275 55.8281C182.462 55.7656 182.603 55.7396 182.697 55.75C182.905 55.7604 183.332 55.9427 183.978 56.2969C184.624 56.6406 185.207 57.0208 185.728 57.4375C186.259 57.8542 186.525 58.1823 186.525 58.4219C186.515 58.599 186.348 59.2708 186.025 60.4375C185.712 61.5938 185.369 62.8229 184.994 64.125L183.853 68.1875C184.311 68.0312 184.754 67.8385 185.181 67.6094C185.369 67.5156 185.546 67.4375 185.712 67.375C185.879 67.3125 186.009 67.276 186.103 67.2656C186.291 67.2656 186.728 67.5052 187.416 67.9844C188.114 68.4531 188.77 68.9583 189.384 69.5C189.999 70.0312 190.311 70.3906 190.322 70.5781C190.332 70.7865 190.244 71.0521 190.056 71.375C189.869 71.6979 189.64 71.9844 189.369 72.2344C189.098 72.4844 188.843 72.6094 188.603 72.6094C188.509 72.6094 188.353 72.5729 188.134 72.5C187.916 72.4167 187.676 72.3177 187.416 72.2031C186.457 71.8177 185.561 71.5 184.728 71.25C183.905 71 182.962 70.8438 181.9 70.7812C181.775 70.7708 181.567 70.7656 181.275 70.7656C179.421 70.7656 176.291 71.0208 171.884 71.5312C172.353 71.9271 172.587 72.2969 172.587 72.6406C172.587 73.2344 171.9 73.9948 170.525 74.9219C169.15 75.849 167.535 76.6615 165.681 77.3594C163.827 78.0573 162.239 78.4062 160.916 78.4062C160.697 78.4062 160.535 78.401 160.431 78.3906C160.358 78.3802 160.296 78.349 160.244 78.2969C160.202 78.2448 160.181 78.1875 160.181 78.125C160.181 78.0521 160.207 77.9844 160.259 77.9219C160.311 77.8594 160.384 77.8177 160.478 77.7969C161.655 77.474 162.785 76.9427 163.869 76.2031C164.962 75.4635 165.895 74.7031 166.666 73.9219C167.436 73.1302 167.989 72.4792 168.322 71.9688L165.947 72.2812C165.291 72.3854 164.426 72.5781 163.353 72.8594C162.718 73.0365 162.301 73.125 162.103 73.125ZM183.322 78.8438C183.218 78.8438 183.061 78.7188 182.853 78.4688C182.655 78.2292 182.348 77.8333 181.931 77.2812C181.296 76.4479 180.728 75.7344 180.228 75.1406C179.728 74.5469 179.155 73.9583 178.509 73.375C177.874 72.7812 177.228 72.3333 176.572 72.0312C176.186 71.8438 175.994 71.6719 175.994 71.5156C175.994 71.4323 176.046 71.375 176.15 71.3438C176.265 71.3021 176.421 71.2917 176.619 71.3125C178.462 71.5521 180.077 71.9271 181.462 72.4375C182.848 72.9375 183.91 73.4792 184.65 74.0625C185.4 74.6458 185.791 75.1719 185.822 75.6406C185.843 76.099 185.728 76.5781 185.478 77.0781C185.239 77.5781 184.916 77.9948 184.509 78.3281C184.114 78.6615 183.718 78.8333 183.322 78.8438ZM228.006 78.1094C227.819 78.1094 227.678 78.0417 227.584 77.9062C227.491 77.7812 227.381 77.5625 227.256 77.25C227.09 76.8333 226.907 76.4635 226.709 76.1406C226.522 75.8177 226.22 75.4792 225.803 75.125C225.397 74.7604 224.85 74.4323 224.162 74.1406C224.09 74.1094 224.032 74.0677 223.991 74.0156C223.959 73.9531 223.944 73.8958 223.944 73.8438C223.944 73.7708 223.97 73.7083 224.022 73.6562C224.084 73.6042 224.168 73.5781 224.272 73.5781L225.116 73.5938C225.751 73.5938 226.261 73.5156 226.647 73.3594C227.032 73.2031 227.241 72.8802 227.272 72.3906C227.293 72.0365 227.303 71.2188 227.303 69.9375C227.303 67.4896 227.246 63.3021 227.131 57.375C227.121 56.8646 227.043 56.4896 226.897 56.25C226.751 56.0104 226.553 55.7917 226.303 55.5938C226.168 55.4792 226.069 55.3906 226.006 55.3281C225.954 55.2552 225.928 55.1615 225.928 55.0469C225.928 54.8594 226.017 54.651 226.194 54.4219C226.381 54.1927 226.59 53.9896 226.819 53.8125C227.058 53.6354 227.225 53.5469 227.319 53.5469C227.537 53.5469 227.923 53.7344 228.475 54.1094C229.037 54.474 229.548 54.8802 230.006 55.3281C230.465 55.776 230.694 56.1198 230.694 56.3594C230.694 56.4531 230.657 56.6562 230.584 56.9688C230.501 57.3229 230.433 57.651 230.381 57.9531C230.34 58.2448 230.324 58.5833 230.334 58.9688C230.345 59.7812 230.371 60.7604 230.412 61.9062C230.454 63.0417 230.496 64.151 230.537 65.2344C230.683 68.9427 230.756 71.5521 230.756 73.0625C230.756 74 230.626 74.8542 230.366 75.625C230.105 76.3958 229.761 77 229.334 77.4375C228.907 77.8854 228.465 78.1094 228.006 78.1094ZM206.725 77.3594C206.537 77.3594 206.366 77.2448 206.209 77.0156C206.053 76.7865 205.84 76.4062 205.569 75.875C205.329 75.3958 205.183 75.1094 205.131 75.0156C204.85 74.4948 204.652 74.0885 204.537 73.7969C204.423 73.5052 204.366 73.1875 204.366 72.8438C204.366 72.6354 204.449 72.401 204.616 72.1406C204.793 71.8802 205.037 71.5677 205.35 71.2031L205.709 70.75C206.699 69.0625 207.61 67.3125 208.444 65.5C209.287 63.6771 209.897 62.2708 210.272 61.2812C210.376 61.0521 210.496 60.9375 210.631 60.9375C210.694 60.9375 210.746 60.974 210.787 61.0469C210.829 61.1094 210.85 61.1979 210.85 61.3125C210.85 61.3958 210.834 61.5 210.803 61.625C210.314 63.3021 209.902 64.9167 209.569 66.4688C209.246 68.0208 208.907 69.776 208.553 71.7344C208.293 73.1719 208.084 74.25 207.928 74.9688C207.782 75.6875 207.61 76.2656 207.412 76.7031C207.215 77.1406 206.985 77.3594 206.725 77.3594ZM211.116 76.7656C210.886 76.8594 210.642 76.9323 210.381 76.9844C210.131 77.0365 209.907 77.0625 209.709 77.0625C209.366 77.0625 209.194 76.9948 209.194 76.8594C209.194 76.7344 209.376 76.5625 209.741 76.3438C210.636 75.7917 211.485 75.0938 212.287 74.25C213.1 73.4062 213.751 72.5885 214.241 71.7969C214.741 70.9948 214.985 70.3906 214.975 69.9844V69.8906C214.6 69.9948 214.22 70.099 213.834 70.2031C213.678 70.849 213.485 71.4115 213.256 71.8906C213.027 72.3594 212.798 72.5938 212.569 72.5938C212.412 72.5938 212.241 72.474 212.053 72.2344C211.866 71.9948 211.704 71.6771 211.569 71.2812C211.444 70.875 211.381 70.4375 211.381 69.9688C211.381 69.8854 211.402 69.4479 211.444 68.6562C211.61 66.0208 211.694 63.1354 211.694 60C211.694 59.7917 211.657 59.599 211.584 59.4219C211.522 59.2344 211.433 59.0312 211.319 58.8125C211.215 58.6354 211.162 58.5156 211.162 58.4531C211.162 58.349 211.282 58.1719 211.522 57.9219C211.772 57.6615 211.933 57.5312 212.006 57.5312C212.183 57.5312 212.439 57.6458 212.772 57.875C213.116 58.0938 213.423 58.3698 213.694 58.7031C213.965 59.026 214.11 59.3438 214.131 59.6562L214.147 60.3594C214.814 60.2135 215.647 59.974 216.647 59.6406C216.709 59.6198 216.814 59.5677 216.959 59.4844C217.116 59.3906 217.246 59.3229 217.35 59.2812C217.465 59.2292 217.569 59.2083 217.662 59.2188C217.704 59.2188 217.798 59.2656 217.944 59.3594C218.09 59.4427 218.23 59.5469 218.366 59.6719C218.366 58.4948 218.345 57.6927 218.303 57.2656C218.293 57.1198 218.272 57.0208 218.241 56.9688C218.209 56.9167 218.147 56.8906 218.053 56.8906L217.803 56.9219C217.553 56.974 217.064 57.1094 216.334 57.3281C215.699 57.5156 215.173 57.6615 214.756 57.7656C214.35 57.8698 214.043 57.9219 213.834 57.9219C213.72 57.9219 213.553 57.8438 213.334 57.6875C213.126 57.5312 212.933 57.3542 212.756 57.1562C212.59 56.9479 212.506 56.7917 212.506 56.6875C212.506 56.6146 212.553 56.5729 212.647 56.5625C213.136 56.5104 213.866 56.3698 214.834 56.1406C215.803 55.9115 216.48 55.7135 216.866 55.5469L217.772 55.1406C218.407 54.8385 218.798 54.6875 218.944 54.6875C219.204 54.6875 219.579 54.8281 220.069 55.1094C220.558 55.3906 220.996 55.724 221.381 56.1094C221.767 56.4948 221.959 56.8333 221.959 57.125C221.959 57.2708 221.892 57.5573 221.756 57.9844C221.694 58.2135 221.631 58.4583 221.569 58.7188C221.506 58.9688 221.475 59.1823 221.475 59.3594L221.366 65.2031L221.287 69.1875C221.287 69.4792 221.204 69.8385 221.037 70.2656C220.871 70.6927 220.662 71.0625 220.412 71.375C220.162 71.6875 219.923 71.8438 219.694 71.8438C219.527 71.8438 219.34 71.7344 219.131 71.5156C218.933 71.2969 218.751 71.0156 218.584 70.6719C218.428 70.3177 218.329 69.9583 218.287 69.5938H218.225C218.069 69.5729 217.829 69.5625 217.506 69.5625C217.183 69.5625 216.939 69.5729 216.772 69.5938C217.095 69.8438 217.392 70.1198 217.662 70.4219C217.933 70.7135 218.069 70.9323 218.069 71.0781C218.069 71.2552 217.886 71.5885 217.522 72.0781L218.303 72.25C219.22 72.4479 219.939 72.625 220.459 72.7812C220.991 72.9375 221.454 73.1615 221.85 73.4531C222.256 73.7344 222.527 74.1042 222.662 74.5625C222.715 74.7708 222.741 74.9635 222.741 75.1406C222.741 75.6198 222.605 76.0417 222.334 76.4062C222.064 76.7812 221.751 76.9688 221.397 76.9688C221.209 76.9688 221.027 76.9115 220.85 76.7969C220.61 76.6406 220.402 76.4531 220.225 76.2344C220.058 76.026 219.86 75.75 219.631 75.4062C219.277 74.8646 218.912 74.3854 218.537 73.9688C218.173 73.5521 217.662 73.125 217.006 72.6875C216.34 73.4375 215.506 74.1771 214.506 74.9062C213.506 75.6354 212.376 76.2552 211.116 76.7656ZM206.725 63.7812C206.392 63.7812 206.131 63.6979 205.944 63.5312C205.756 63.3646 205.548 63.0938 205.319 62.7188C205.006 62.25 204.741 61.8958 204.522 61.6562C204.22 61.3542 203.912 61.0729 203.6 60.8125C203.423 60.6562 203.267 60.5156 203.131 60.3906C203.006 60.2552 202.944 60.1562 202.944 60.0938C202.944 60.0312 202.975 59.9688 203.037 59.9062C203.11 59.8333 203.209 59.7969 203.334 59.7969C205.199 59.776 206.558 59.9427 207.412 60.2969C208.267 60.6406 208.694 61.1094 208.694 61.7031C208.694 61.8177 208.689 61.901 208.678 61.9531C208.584 62.474 208.35 62.9115 207.975 63.2656C207.6 63.6094 207.183 63.7812 206.725 63.7812ZM209.35 58.1406C209.058 58.1406 208.814 58.1042 208.616 58.0312C208.428 57.9479 208.267 57.8385 208.131 57.7031C208.006 57.5677 207.845 57.3646 207.647 57.0938L207.209 56.5469C206.991 56.276 206.793 56.0885 206.616 55.9844C206.449 55.8802 206.246 55.7812 206.006 55.6875C205.819 55.6354 205.668 55.5677 205.553 55.4844C205.47 55.4323 205.428 55.3594 205.428 55.2656C205.428 55.1406 205.522 55.0417 205.709 54.9688C206.209 54.8021 206.814 54.7188 207.522 54.7188C208.491 54.7188 209.324 54.901 210.022 55.2656C210.73 55.6198 211.084 56.1771 211.084 56.9375C211.084 57.2917 210.923 57.5833 210.6 57.8125C210.287 58.0312 209.871 58.1406 209.35 58.1406ZM224.241 71.0469C224.116 71.0469 223.944 70.9271 223.725 70.6875C223.506 70.4479 223.308 70.1562 223.131 69.8125C222.965 69.4583 222.881 69.125 222.881 68.8125C222.881 68.6667 222.902 68.1667 222.944 67.3125C223.027 65.3438 223.069 63.8594 223.069 62.8594C223.069 62.1198 223.053 61.3281 223.022 60.4844C223.011 60.2552 222.97 60.0677 222.897 59.9219C222.834 59.776 222.735 59.599 222.6 59.3906C222.537 59.2969 222.48 59.2083 222.428 59.125C222.386 59.0312 222.366 58.9427 222.366 58.8594C222.366 58.7552 222.449 58.6302 222.616 58.4844C222.782 58.3281 222.975 58.1927 223.194 58.0781C223.412 57.9635 223.59 57.9062 223.725 57.9062C223.902 57.9167 224.199 58.0729 224.616 58.375C225.032 58.6667 225.407 59 225.741 59.375C226.074 59.7396 226.241 60.0365 226.241 60.2656C226.241 60.3281 226.225 60.4062 226.194 60.5C226.173 60.5938 226.147 60.6875 226.116 60.7812C226.022 61.0625 225.944 61.349 225.881 61.6406C225.829 61.9219 225.798 62.2969 225.787 62.7656V63.7344V66.2656C225.787 67.4948 225.782 68.3438 225.772 68.8125C225.772 69.0833 225.683 69.401 225.506 69.7656C225.34 70.1198 225.136 70.4219 224.897 70.6719C224.657 70.9219 224.439 71.0469 224.241 71.0469ZM214.053 68.2812C215.168 68.1562 216.324 67.9531 217.522 67.6719C217.636 67.6406 217.761 67.6094 217.897 67.5781C218.043 67.5365 218.168 67.5104 218.272 67.5L218.303 65.5781H218.272C218.136 65.5573 217.949 65.526 217.709 65.4844C217.48 65.4427 217.277 65.4323 217.1 65.4531C216.173 65.5677 215.168 65.7865 214.084 66.1094L214.053 68.2812ZM214.116 64.3125C214.866 64.1458 215.689 63.9167 216.584 63.625C216.668 63.5938 216.777 63.5417 216.912 63.4688C217.027 63.4062 217.147 63.349 217.272 63.2969C217.407 63.2344 217.522 63.2083 217.616 63.2188C217.657 63.2188 217.751 63.2656 217.897 63.3594C218.043 63.4427 218.189 63.5521 218.334 63.6875L218.35 61.625H218.319C218.308 61.625 218.152 61.599 217.85 61.5469C217.558 61.4948 217.324 61.4792 217.147 61.5C216.168 61.6146 215.168 61.8438 214.147 62.1875L214.116 64.3125ZM273.847 77.6406C272.649 77.6406 271.456 76.9427 270.269 75.5469C269.081 74.151 267.993 72.2812 267.003 69.9375L266.925 69.9844L266.409 70.3281C264.909 71.349 263.383 72.3542 261.831 73.3438C260.29 74.3333 259.373 74.8333 259.081 74.8438C258.915 74.8542 258.701 74.7865 258.441 74.6406C258.191 74.4948 257.816 74.25 257.316 73.9062L256.331 73.25C256.113 73.5104 255.904 73.7656 255.706 74.0156C256.071 74.3073 256.253 74.5677 256.253 74.7969C256.253 74.9844 256.149 75.1823 255.941 75.3906C255.732 75.599 255.54 75.7031 255.363 75.7031C255.321 75.7031 255.295 75.7083 255.284 75.7188C255.274 75.7188 255.217 75.7188 255.113 75.7188C255.008 75.7083 254.821 75.6927 254.55 75.6719L253.659 75.6406C253.159 75.6406 252.727 75.6719 252.363 75.7344L252.441 76.2188C252.451 76.4167 252.43 76.6927 252.378 77.0469C252.326 77.401 252.243 77.7135 252.128 77.9844C252.014 78.2552 251.868 78.3906 251.691 78.3906C251.493 78.3906 251.227 78.2865 250.894 78.0781C250.56 77.8802 250.258 77.6354 249.988 77.3438C249.727 77.0625 249.581 76.7969 249.55 76.5469C249.498 75.974 249.467 75.5052 249.456 75.1406C249.435 74.651 249.404 74.224 249.363 73.8594C249.331 73.4948 249.258 73.0677 249.144 72.5781C249.092 72.3698 249.019 72.1875 248.925 72.0312C248.831 71.8646 248.711 71.6875 248.566 71.5C248.451 71.3438 248.368 71.224 248.316 71.1406C248.274 71.0573 248.253 70.974 248.253 70.8906C248.253 70.7552 248.357 70.6042 248.566 70.4375C248.784 70.2708 248.977 70.1771 249.144 70.1562C249.342 70.1354 249.633 70.1771 250.019 70.2812C250.404 70.3854 250.743 70.5104 251.034 70.6562L253.816 69.9375C254.066 69.8854 254.425 69.724 254.894 69.4531C255.092 69.349 255.284 69.2552 255.472 69.1719C255.67 69.0885 255.826 69.0469 255.941 69.0469C256.045 69.0469 256.248 69.1927 256.55 69.4844C256.863 69.776 257.144 70.1042 257.394 70.4688C257.644 70.8333 257.769 71.1354 257.769 71.375C257.769 71.5417 257.644 71.7656 257.394 72.0469C258.008 71.9427 258.889 71.7448 260.034 71.4531C260.034 70.2656 260.014 69.0156 259.972 67.7031L259.956 67.0469C259.758 67.1094 259.461 67.2344 259.066 67.4219C258.961 67.474 258.857 67.5208 258.753 67.5625C258.659 67.6042 258.586 67.6198 258.534 67.6094C258.389 67.6094 258.185 67.5052 257.925 67.2969C257.665 67.0781 257.415 66.8333 257.175 66.5625C256.946 66.2917 256.805 66.0938 256.753 65.9688C256.732 65.9062 256.722 65.8646 256.722 65.8438C256.722 65.7812 256.743 65.7292 256.784 65.6875C256.826 65.6458 256.873 65.625 256.925 65.625C257.404 65.6458 258.123 65.5417 259.081 65.3125C260.04 65.0729 260.784 64.8125 261.316 64.5312C261.441 64.4688 261.555 64.401 261.659 64.3281C261.774 64.2448 261.873 64.1719 261.956 64.1094C262.081 64.0052 262.18 63.9323 262.253 63.8906C262.336 63.849 262.435 63.8333 262.55 63.8438C262.675 63.8438 262.956 63.9271 263.394 64.0938C263.831 64.2604 264.227 64.4479 264.581 64.6562C264.935 64.8646 265.113 65.0469 265.113 65.2031C265.113 65.2969 265.066 65.4688 264.972 65.7188C264.878 65.9583 264.764 66.1771 264.628 66.375C264.493 66.5625 264.347 66.6562 264.191 66.6562C264.076 66.6562 263.915 66.6458 263.706 66.625C263.29 66.6042 262.961 66.5938 262.722 66.5938C262.503 66.5938 262.336 66.599 262.222 66.6094L261.784 66.6406C262.139 66.7135 262.435 66.8177 262.675 66.9531C262.915 67.0781 263.029 67.2188 263.019 67.375C263.008 67.5104 263.003 67.7188 263.003 68C263.003 68.4688 263.019 68.9219 263.05 69.3594C263.071 69.9219 263.081 70.3229 263.081 70.5625C263.904 70.3021 264.659 70.0521 265.347 69.8125C266.045 69.5729 266.482 69.4115 266.659 69.3281L266.738 69.2969C265.758 66.8385 264.988 64.1823 264.425 61.3281C263.06 61.5573 261.576 61.9167 259.972 62.4062C259.659 62.5 259.373 62.5833 259.113 62.6562C258.852 62.7188 258.665 62.75 258.55 62.75C258.373 62.75 258.118 62.6042 257.784 62.3125C257.461 62.0208 257.17 61.7031 256.909 61.3594C256.774 61.4115 256.659 61.4375 256.566 61.4375C256.43 61.4167 256.232 61.3906 255.972 61.3594C255.722 61.3281 255.389 61.3125 254.972 61.3125C254.524 61.3125 254.149 61.3229 253.847 61.3438C252.836 61.4062 251.972 61.5521 251.253 61.7812C250.545 62 249.826 62.2812 249.097 62.625C248.774 62.7708 248.529 62.875 248.363 62.9375C248.196 63 248.05 63.0312 247.925 63.0312C247.758 63.0312 247.472 62.901 247.066 62.6406C246.67 62.3698 246.274 62.0729 245.878 61.75C245.493 61.4271 245.264 61.2188 245.191 61.125C245.149 61.0729 245.128 61.0104 245.128 60.9375C245.128 60.8333 245.175 60.7448 245.269 60.6719C245.373 60.5885 245.503 60.5521 245.659 60.5625C246.982 60.5833 249.133 60.3021 252.113 59.7188C252.154 59.3125 252.175 58.7917 252.175 58.1562L252.159 56.4844C252.159 56.3906 252.071 56.2708 251.894 56.125C251.717 55.9792 251.477 55.7969 251.175 55.5781C251.133 55.5469 251.113 55.5052 251.113 55.4531C251.113 55.349 251.17 55.2708 251.284 55.2188C251.586 55.0625 251.909 54.9167 252.253 54.7812C252.597 54.6354 252.857 54.5521 253.034 54.5312C253.211 54.5208 253.545 54.6354 254.034 54.875C254.524 55.1146 254.972 55.3854 255.378 55.6875C255.784 55.9792 255.988 56.2031 255.988 56.3594C255.988 56.901 255.644 57.7708 254.956 58.9688L255.269 58.8281C255.54 58.6823 255.738 58.6094 255.863 58.6094C256.081 58.6094 256.336 58.7188 256.628 58.9375C256.93 59.1562 257.196 59.401 257.425 59.6719C257.654 59.9323 257.769 60.1146 257.769 60.2188C257.769 60.3021 257.753 60.3906 257.722 60.4844C258.264 60.4635 258.816 60.4115 259.378 60.3281C260.076 60.2135 260.863 60.0573 261.738 59.8594C262.623 59.6615 263.404 59.4635 264.081 59.2656L263.894 57.8594C263.831 57.3177 263.685 56.8906 263.456 56.5781C263.238 56.2656 262.972 55.9896 262.659 55.75C262.472 55.5938 262.378 55.4896 262.378 55.4375C262.378 55.3229 262.467 55.1719 262.644 54.9844C262.831 54.7865 263.055 54.6146 263.316 54.4688C263.586 54.3229 263.842 54.25 264.081 54.25C264.31 54.25 264.644 54.3177 265.081 54.4531C265.529 54.5885 265.925 54.7604 266.269 54.9688C266.623 55.1667 266.8 55.3594 266.8 55.5469C266.81 55.724 266.8 55.9844 266.769 56.3281C266.727 56.7656 266.706 57.1667 266.706 57.5312C266.706 57.8125 266.711 58.0312 266.722 58.1875C267.316 57.9271 267.665 57.7969 267.769 57.7969C267.967 57.7969 268.31 57.9479 268.8 58.25C269.29 58.5521 269.732 58.8906 270.128 59.2656C270.534 59.6406 270.738 59.9271 270.738 60.125C270.738 60.2292 270.675 60.3698 270.55 60.5469C270.435 60.724 270.279 60.8802 270.081 61.0156C269.894 61.151 269.696 61.2188 269.488 61.2188C269.435 61.2188 269.232 61.1979 268.878 61.1562C268.097 61.0729 267.514 61.0312 267.128 61.0312C267.482 62.8021 267.988 64.5104 268.644 66.1562C269.31 67.8021 269.977 69.1354 270.644 70.1562C271.321 71.1771 271.831 71.6875 272.175 71.6875C272.498 71.6875 272.81 71.401 273.113 70.8281C273.415 70.2448 273.717 69.4896 274.019 68.5625C274.113 68.2917 274.232 68.1562 274.378 68.1562C274.43 68.1562 274.472 68.1823 274.503 68.2344C274.545 68.276 274.566 68.3333 274.566 68.4062L274.534 68.5781C274.347 69.2031 274.253 69.8385 274.253 70.4844C274.253 71.1406 274.331 71.7604 274.488 72.3438C274.644 72.9167 274.863 73.5573 275.144 74.2656C275.3 74.6719 275.415 74.9844 275.488 75.2031C275.56 75.4115 275.597 75.599 275.597 75.7656C275.597 76.0885 275.498 76.3958 275.3 76.6875C275.102 76.9792 274.863 77.2083 274.581 77.375C274.3 77.5521 274.055 77.6406 273.847 77.6406ZM250.488 69.2031C250.31 69.1823 250.076 69.0573 249.784 68.8281C249.503 68.5885 249.232 68.3333 248.972 68.0625C248.711 67.7917 248.56 67.6146 248.519 67.5312L248.488 67.4375C248.488 67.375 248.519 67.3385 248.581 67.3281C248.654 67.3073 248.769 67.2917 248.925 67.2812C249.883 67.2396 250.774 67.1302 251.597 66.9531C252.43 66.776 253.113 66.5885 253.644 66.3906C253.883 66.3073 254.139 66.1927 254.409 66.0469C254.701 65.901 254.899 65.8229 255.003 65.8125C255.128 65.8125 255.342 65.9115 255.644 66.1094C255.956 66.3073 256.243 66.526 256.503 66.7656C256.774 67.0052 256.909 67.1823 256.909 67.2969C256.909 67.4219 256.816 67.599 256.628 67.8281C256.441 68.0469 256.232 68.2552 256.003 68.4531C255.774 68.6406 255.639 68.7344 255.597 68.7344C255.451 68.724 255.196 68.6979 254.831 68.6562C254.477 68.6042 254.118 68.5781 253.753 68.5781C253.451 68.5781 253.222 68.5885 253.066 68.6094C252.482 68.6719 252.029 68.7448 251.706 68.8281C251.394 68.901 251.113 68.9896 250.863 69.0938C250.685 69.1667 250.56 69.2031 250.488 69.2031ZM250.206 65.9219C250.06 65.9219 249.836 65.7969 249.534 65.5469C249.232 65.2969 248.93 65.0208 248.628 64.7188C248.336 64.4167 248.17 64.224 248.128 64.1406L248.097 64.0625C248.097 64.0104 248.123 63.9792 248.175 63.9688C248.238 63.9583 248.321 63.9531 248.425 63.9531C249.3 63.9115 250.222 63.7604 251.191 63.5C252.17 63.2396 253.003 62.974 253.691 62.7031L254.378 62.4062C254.67 62.2708 254.868 62.2031 254.972 62.2031C255.097 62.2031 255.29 62.2917 255.55 62.4688C255.81 62.6458 256.045 62.8438 256.253 63.0625C256.472 63.2812 256.581 63.4479 256.581 63.5625C256.581 63.6771 256.508 63.8542 256.363 64.0938C256.217 64.3229 256.055 64.5312 255.878 64.7188C255.711 64.8958 255.586 64.9844 255.503 64.9844C255.045 64.9427 254.644 64.9219 254.3 64.9219C253.644 64.9219 253.05 64.9688 252.519 65.0625C252.238 65.1042 252.008 65.1562 251.831 65.2188C251.665 65.2812 251.451 65.375 251.191 65.5C250.868 65.6667 250.54 65.8073 250.206 65.9219ZM271.456 58.6875C271.248 58.625 271.086 58.5208 270.972 58.375C270.857 58.2292 270.722 58.0104 270.566 57.7188C270.326 57.25 270.05 56.849 269.738 56.5156C269.425 56.1823 268.946 55.8802 268.3 55.6094C268.217 55.5781 268.149 55.5365 268.097 55.4844C268.045 55.4323 268.019 55.3802 268.019 55.3281C268.019 55.2552 268.071 55.1979 268.175 55.1562C268.331 55.0833 268.628 55.0208 269.066 54.9688C269.503 54.9062 269.92 54.875 270.316 54.875C270.586 54.875 270.816 54.8906 271.003 54.9219C272.764 55.2135 273.644 55.901 273.644 56.9844C273.644 57.224 273.534 57.4792 273.316 57.75C273.097 58.0208 272.831 58.25 272.519 58.4375C272.206 58.625 271.92 58.7188 271.659 58.7188C271.607 58.7188 271.54 58.7083 271.456 58.6875ZM252.066 74.0625C252.826 73.8854 253.472 73.7604 254.003 73.6875C254.118 73.2917 254.211 72.901 254.284 72.5156C254.357 72.1198 254.394 71.8125 254.394 71.5938C254.394 71.5312 254.31 71.5 254.144 71.5C253.904 71.5 253.55 71.5573 253.081 71.6719C252.613 71.7865 252.154 71.9271 251.706 72.0938L252.066 74.0625Z" fill="white"/>
<defs>
<clipPath id="clip0_1537_133">
<rect width="45.0204" height="45.1093" fill="white" transform="matrix(0.941714 -0.336415 0.334897 0.942255 37.0222 35.5232)"/>
</clipPath>
</defs>
</svg>
