<svg width="430" height="46" viewBox="0 0 430 46" fill="none" xmlns="http://www.w3.org/2000/svg">
<rect x="19" y="22.5" width="99" height="1" fill="#5B89BB"/>
<rect x="141.5" y="18.7328" width="6.03473" height="6.03473" transform="rotate(45 141.5 18.7328)" stroke="#5B89BB" stroke-width="2"/>
<rect x="141.5" y="14.8856" width="11.4755" height="11.4755" transform="rotate(45 141.5 14.8856)" stroke="#5B89BB" stroke-width="2"/>
<path d="M181.215 27.078H176.837V28.442H181.215V27.078ZM166.453 27.078V25.472H174.813V24.218H168.477V22.766H174.813V21.468H169.005V17.42H174.813V16.298H166.893V14.648H174.813V13.042H176.837V14.648H184.977V16.298H176.837V17.42H182.909V21.468H176.837V22.766H183.261V25.472H185.417V27.078H183.261V30.928H181.215V29.982H176.837V31.126C176.837 32.248 176.573 32.71 175.825 32.996C175.099 33.26 173.999 33.282 172.239 33.282C172.107 32.82 171.821 32.05 171.557 31.632C172.723 31.676 173.999 31.676 174.329 31.654C174.681 31.632 174.813 31.522 174.813 31.148V29.982H168.279V28.442H174.813V27.078H166.453ZM170.941 20.104H174.813V18.784H170.941V20.104ZM176.837 25.472H181.215V24.218H176.837V25.472ZM176.837 20.104H180.885V18.784H176.837V20.104ZM200.162 26.99V25.12H196.092V26.99H200.162ZM192.968 18.256V16.386H197.764C197.39 15.572 196.642 14.472 196.026 13.68L197.896 13.02C198.666 13.9 199.568 15.132 199.898 15.968L198.798 16.386H204.804C205.464 15.352 206.234 13.988 206.652 12.932L208.808 13.636C208.258 14.56 207.664 15.528 207.07 16.386H211.668V18.256H192.968ZM194.2 33.128V20.016H202.098V31.082C202.098 32.028 201.9 32.534 201.284 32.82C200.624 33.15 199.656 33.172 198.336 33.172C198.204 32.666 197.918 31.852 197.698 31.412C198.622 31.456 199.568 31.456 199.81 31.434C200.074 31.412 200.162 31.324 200.162 31.038V28.552H196.092V33.128H194.2ZM196.092 23.558H200.162V21.754H196.092V23.558ZM204.232 29.168V20.214H206.102V29.168H204.232ZM205.354 31.236C206.52 31.28 207.664 31.28 207.972 31.258C208.302 31.236 208.39 31.148 208.39 30.84V19.598H210.392V30.862C210.392 31.94 210.15 32.49 209.424 32.798C208.742 33.128 207.598 33.194 206.036 33.172C205.926 32.622 205.596 31.72 205.354 31.236ZM225.95 28.068C226.478 28.926 226.94 30.004 227.138 30.796L226.28 31.038H230.878L230.196 30.862C230.614 30.136 231.142 28.948 231.494 28.068H225.95ZM218.822 21.952C220.12 21.38 221.484 20.456 222.694 19.356C222.056 18.652 221.066 17.86 220.208 17.288L221.286 16.144C222.21 16.694 223.266 17.508 223.882 18.168C224.586 17.376 225.224 16.474 225.73 15.55H220.956V13.856H226.698L227.028 13.768L228.304 14.45C227.71 16.122 226.808 17.64 225.664 18.982H231.89C230.548 17.398 229.47 15.594 228.678 13.636L230.372 13.086C230.724 13.966 231.164 14.802 231.67 15.572C232.55 14.824 233.518 13.922 234.09 13.218L235.586 14.34C234.684 15.198 233.562 16.144 232.594 16.848C232.968 17.332 233.386 17.794 233.804 18.212C234.75 17.464 235.74 16.518 236.422 15.748L237.874 16.848C237.016 17.684 235.916 18.586 234.948 19.29C236.048 20.214 237.258 20.962 238.534 21.468C238.094 21.864 237.5 22.634 237.236 23.184C235.498 22.348 233.936 21.16 232.572 19.73V20.742H224.85L224.828 19.906C223.398 21.402 221.682 22.612 219.966 23.448C219.724 23.008 219.196 22.304 218.822 21.952ZM219.746 32.754V31.038H225.136C224.894 30.246 224.454 29.168 224.036 28.398L225.202 28.068H222.848V22.282H234.596V28.068H232.55L233.496 28.31C233.056 29.278 232.55 30.268 232.11 31.038H237.742V32.754H219.746ZM224.784 26.418H232.55V23.954H224.784V26.418ZM258.096 29.08L256.71 30.07C255.742 30.752 254.796 31.434 253.916 32.006L253.322 31.016C250.748 31.61 248.086 32.204 246.04 32.644L245.644 30.774C246.524 30.62 247.668 30.4 248.922 30.158V23.954H245.864V22.172H248.922V20.17H246.92L246.898 19.246C246.832 19.334 246.722 19.422 246.634 19.51C246.524 19.62 246.414 19.73 246.26 19.862C246.04 19.444 245.424 18.806 245.072 18.542C246.876 16.936 248.174 14.78 248.856 13.042H250.55C251.826 14.186 253.344 15.77 254.092 16.848L252.816 18.432H252.86V20.17H250.682V22.172H253.498V23.954H250.682V29.828L253.542 29.256L253.586 30.07C254.686 29.388 256.138 28.464 257.546 27.54L258.096 29.08ZM246.216 25.296L247.536 24.944C247.932 26.242 248.262 27.848 248.35 28.926L246.942 29.322C246.898 28.222 246.568 26.55 246.216 25.296ZM247.624 18.432H252.772C252.178 17.486 251.056 16.012 249.978 14.978C249.406 16.034 248.636 17.244 247.624 18.432ZM251.122 28.552C251.452 27.518 251.804 25.868 251.958 24.768L253.454 25.164L253.124 26.462C252.882 27.364 252.64 28.244 252.42 28.904L251.122 28.552ZM253.586 22.876V21.16H260.384C260.45 20.632 260.538 20.082 260.626 19.532H256.556L256.358 20.346L254.466 20.17C254.928 18.344 255.544 15.308 255.874 13.02L257.766 13.218L257.502 14.604H261.44L261.748 14.516L263.112 14.648C262.914 16.606 262.628 19.07 262.298 21.16H264.674V22.876H260.01L259.988 23.536C260.802 26.748 262.386 29.388 264.96 30.532C264.586 30.862 264.058 31.61 263.794 32.138C262.122 31.28 260.912 29.828 260.01 28.024V31.214C260.01 32.094 259.878 32.622 259.306 32.93C258.712 33.216 257.898 33.238 256.732 33.238C256.622 32.732 256.402 31.94 256.182 31.5C256.908 31.522 257.634 31.522 257.832 31.522C258.03 31.5 258.118 31.434 258.118 31.192V22.876H253.586ZM253.872 24.46L255.214 23.58C256.028 24.438 256.93 25.604 257.26 26.44L255.786 27.408C255.478 26.572 254.642 25.34 253.872 24.46ZM256.864 17.97H260.824C260.912 17.332 260.978 16.694 261.066 16.144H257.238C257.194 16.408 257.128 16.694 257.084 16.98C257.018 17.31 256.952 17.64 256.864 17.97ZM261.11 26.506C261.704 25.736 262.518 24.46 262.936 23.558L264.542 24.372C263.816 25.428 263.024 26.506 262.364 27.276L261.11 26.506Z" fill="#5B89BB"/>
<rect x="289.5" y="18.7328" width="6.03473" height="6.03473" transform="rotate(45 289.5 18.7328)" stroke="#5B89BB" stroke-width="2"/>
<rect x="289.5" y="14.8856" width="11.4755" height="11.4755" transform="rotate(45 289.5 14.8856)" stroke="#5B89BB" stroke-width="2"/>
<rect x="313" y="22.5" width="99" height="1" fill="#5B89BB"/>
</svg>
