<svg width="430" height="56" viewBox="0 0 430 56" fill="none" xmlns="http://www.w3.org/2000/svg">
<g clip-path="url(#clip0_5_147)">
<path d="M278.014 44H278.909L276.895 56H276L278.014 44Z" fill="#5B89BB" fill-opacity="0.25"/>
<path d="M279.26 44H280.155L278.142 56H277.247L279.26 44Z" fill="#5B89BB" fill-opacity="0.25"/>
<path d="M280.507 44H281.402L279.388 56H278.493L280.507 44Z" fill="#5B89BB" fill-opacity="0.25"/>
<path d="M281.753 44H282.648L280.635 56H279.74L281.753 44Z" fill="#5B89BB" fill-opacity="0.25"/>
<path d="M283.895 44H283L280.986 56H281.881L283.895 44Z" fill="#5B89BB" fill-opacity="0.25"/>
<path d="M285.141 44H284.246L282.233 56H283.128L285.141 44Z" fill="#5B89BB" fill-opacity="0.25"/>
<path d="M286.388 44H285.493L283.479 56H284.374L286.388 44Z" fill="#5B89BB" fill-opacity="0.25"/>
<path d="M286.74 44H287.634L285.621 56H284.726L286.74 44Z" fill="#5B89BB" fill-opacity="0.25"/>
<path d="M287.986 44H288.881L286.867 56H285.972L287.986 44Z" fill="#5B89BB" fill-opacity="0.25"/>
<path d="M289.233 44H290.128L288.114 56H287.219L289.233 44Z" fill="#5B89BB" fill-opacity="0.25"/>
<path d="M291.374 44H290.479L288.466 56H289.36L291.374 44Z" fill="#5B89BB" fill-opacity="0.25"/>
<path d="M292.621 44H291.726L289.712 56H290.607L292.621 44Z" fill="#5B89BB" fill-opacity="0.25"/>
<path d="M293.867 44H292.972L290.959 56H291.854L293.867 44Z" fill="#5B89BB" fill-opacity="0.25"/>
<path d="M294.219 44H295.114L293.1 56H292.205L294.219 44Z" fill="#5B89BB" fill-opacity="0.25"/>
<path d="M295.465 44H296.36L294.347 56H293.452L295.465 44Z" fill="#5B89BB" fill-opacity="0.25"/>
<path d="M296.712 44H297.607L295.593 56H294.698L296.712 44Z" fill="#5B89BB" fill-opacity="0.25"/>
<path d="M298.853 44H297.958L295.945 56H296.84L298.853 44Z" fill="#5B89BB" fill-opacity="0.25"/>
<path d="M300.1 44H299.205L297.191 56H298.086L300.1 44Z" fill="#5B89BB" fill-opacity="0.25"/>
<path d="M301.347 44H300.452L298.438 56H299.333L301.347 44Z" fill="#5B89BB" fill-opacity="0.25"/>
<path d="M301.698 44H302.593L300.579 56H299.684L301.698 44Z" fill="#5B89BB" fill-opacity="0.25"/>
<path d="M302.945 44H303.84L301.826 56H300.931L302.945 44Z" fill="#5B89BB" fill-opacity="0.25"/>
<path d="M304.191 44H305.086L303.073 56H302.178L304.191 44Z" fill="#5B89BB" fill-opacity="0.25"/>
<path d="M306.333 44H305.438L303.424 56H304.319L306.333 44Z" fill="#5B89BB" fill-opacity="0.25"/>
<path d="M307.579 44H306.684L304.671 56H305.566L307.579 44Z" fill="#5B89BB" fill-opacity="0.25"/>
<path d="M308.826 44H307.931L305.917 56H306.812L308.826 44Z" fill="#5B89BB" fill-opacity="0.25"/>
<path d="M309.177 44H310.072L308.059 56H307.164L309.177 44Z" fill="#5B89BB" fill-opacity="0.25"/>
<path d="M310.424 44H311.319L309.305 56H308.41L310.424 44Z" fill="#5B89BB" fill-opacity="0.25"/>
<path d="M311.671 44H312.566L310.552 56H309.657L311.671 44Z" fill="#5B89BB" fill-opacity="0.25"/>
<path d="M313.812 44H312.917L310.903 56H311.798L313.812 44Z" fill="#5B89BB" fill-opacity="0.25"/>
<path d="M315.059 44H314.164L312.15 56H313.045L315.059 44Z" fill="#5B89BB" fill-opacity="0.25"/>
<path d="M316.305 44H315.41L313.397 56H314.292L316.305 44Z" fill="#5B89BB" fill-opacity="0.25"/>
<path d="M316.657 44H317.552L315.538 56H314.643L316.657 44Z" fill="#5B89BB" fill-opacity="0.25"/>
<path d="M317.903 44H318.798L316.785 56H315.89L317.903 44Z" fill="#5B89BB" fill-opacity="0.25"/>
<path d="M319.15 44H320.045L318.031 56H317.136L319.15 44Z" fill="#5B89BB" fill-opacity="0.25"/>
<path d="M321.291 44H320.396L318.383 56H319.278L321.291 44Z" fill="#5B89BB" fill-opacity="0.25"/>
<path d="M322.538 44H321.643L319.629 56H320.524L322.538 44Z" fill="#5B89BB" fill-opacity="0.25"/>
<path d="M323.784 44H322.89L320.876 56H321.771L323.784 44Z" fill="#5B89BB" fill-opacity="0.25"/>
<path d="M324.136 44H325.031L323.017 56H322.122L324.136 44Z" fill="#5B89BB" fill-opacity="0.25"/>
<path d="M325.383 44H326.278L324.264 56H323.369L325.383 44Z" fill="#5B89BB" fill-opacity="0.25"/>
<path d="M326.629 44H327.524L325.51 56H324.616L326.629 44Z" fill="#5B89BB" fill-opacity="0.25"/>
<path d="M328.771 44H327.876L325.862 56H326.757L328.771 44Z" fill="#5B89BB" fill-opacity="0.25"/>
<path d="M330.017 44H329.122L327.109 56H328.004L330.017 44Z" fill="#5B89BB" fill-opacity="0.25"/>
<path d="M331.264 44H330.369L328.355 56H329.25L331.264 44Z" fill="#5B89BB" fill-opacity="0.25"/>
<path d="M331.615 44H332.51L330.497 56H329.602L331.615 44Z" fill="#5B89BB" fill-opacity="0.25"/>
<path d="M332.862 44H333.757L331.743 56H330.848L332.862 44Z" fill="#5B89BB" fill-opacity="0.25"/>
<path d="M334.108 44H335.003L332.99 56H332.095L334.108 44Z" fill="#5B89BB" fill-opacity="0.25"/>
<path d="M336.25 44H335.355L333.341 56H334.236L336.25 44Z" fill="#5B89BB" fill-opacity="0.25"/>
<path d="M337.497 44H336.602L334.588 56H335.483L337.497 44Z" fill="#5B89BB" fill-opacity="0.25"/>
<path d="M337.848 44H338.743L336.729 56H335.834L337.848 44Z" fill="#5B89BB" fill-opacity="0.25"/>
<path d="M339.095 44H339.99L337.976 56H337.081L339.095 44Z" fill="#5B89BB" fill-opacity="0.25"/>
<path d="M340.341 44H341.236L339.223 56H338.328L340.341 44Z" fill="#5B89BB" fill-opacity="0.25"/>
<path d="M341.588 44H342.483L340.469 56H339.574L341.588 44Z" fill="#5B89BB" fill-opacity="0.25"/>
<path d="M343.729 44H342.834L340.821 56H341.716L343.729 44Z" fill="#5B89BB" fill-opacity="0.25"/>
<path d="M344.976 44H344.081L342.067 56H342.962L344.976 44Z" fill="#5B89BB" fill-opacity="0.25"/>
<path d="M346.222 44H345.327L343.314 56H344.209L346.222 44Z" fill="#5B89BB" fill-opacity="0.25"/>
<path d="M346.574 44H347.469L345.455 56H344.56L346.574 44Z" fill="#5B89BB" fill-opacity="0.25"/>
<path d="M347.821 44H348.716L346.702 56H345.807L347.821 44Z" fill="#5B89BB" fill-opacity="0.25"/>
<path d="M349.067 44H349.962L347.948 56H347.053L349.067 44Z" fill="#5B89BB" fill-opacity="0.25"/>
<path d="M351.209 44H350.314L348.3 56H349.195L351.209 44Z" fill="#5B89BB" fill-opacity="0.25"/>
<path d="M352.455 44H351.56L349.547 56H350.441L352.455 44Z" fill="#5B89BB" fill-opacity="0.25"/>
<path d="M353.702 44H352.807L350.793 56H351.688L353.702 44Z" fill="#5B89BB" fill-opacity="0.25"/>
<path d="M354.053 44H354.948L352.935 56H352.04L354.053 44Z" fill="#5B89BB" fill-opacity="0.25"/>
<path d="M355.3 44H356.195L354.181 56H353.286L355.3 44Z" fill="#5B89BB" fill-opacity="0.25"/>
<path d="M356.546 44H357.441L355.428 56H354.533L356.546 44Z" fill="#5B89BB" fill-opacity="0.25"/>
<path d="M358.688 44H357.793L355.779 56H356.674L358.688 44Z" fill="#5B89BB" fill-opacity="0.25"/>
<path d="M359.934 44H359.04L357.026 56H357.921L359.934 44Z" fill="#5B89BB" fill-opacity="0.25"/>
<path d="M361.181 44H360.286L358.272 56H359.167L361.181 44Z" fill="#5B89BB" fill-opacity="0.25"/>
<path d="M361.533 44H362.428L360.414 56H359.519L361.533 44Z" fill="#5B89BB" fill-opacity="0.25"/>
<path d="M362.779 44H363.674L361.66 56H360.766L362.779 44Z" fill="#5B89BB" fill-opacity="0.25"/>
<path d="M364.026 44H364.921L362.907 56H362.012L364.026 44Z" fill="#5B89BB" fill-opacity="0.25"/>
<path d="M366.167 44H365.272L363.259 56H364.154L366.167 44Z" fill="#5B89BB" fill-opacity="0.25"/>
<path d="M367.414 44H366.519L364.505 56H365.4L367.414 44Z" fill="#5B89BB" fill-opacity="0.25"/>
<path d="M368.66 44H367.765L365.752 56H366.647L368.66 44Z" fill="#5B89BB" fill-opacity="0.25"/>
<path d="M369.012 44H369.907L367.893 56H366.998L369.012 44Z" fill="#5B89BB" fill-opacity="0.25"/>
<path d="M370.259 44H371.153L369.14 56H368.245L370.259 44Z" fill="#5B89BB" fill-opacity="0.25"/>
<path d="M371.505 44H372.4L370.386 56H369.491L371.505 44Z" fill="#5B89BB" fill-opacity="0.25"/>
<path d="M373.647 44H372.752L370.738 56H371.633L373.647 44Z" fill="#5B89BB" fill-opacity="0.25"/>
<path d="M374.893 44H373.998L371.984 56H372.879L374.893 44Z" fill="#5B89BB" fill-opacity="0.25"/>
<path d="M376.14 44H375.245L373.231 56H374.126L376.14 44Z" fill="#5B89BB" fill-opacity="0.25"/>
<path d="M376.491 44H377.386L375.373 56H374.478L376.491 44Z" fill="#5B89BB" fill-opacity="0.25"/>
<path d="M377.738 44H378.633L376.619 56H375.724L377.738 44Z" fill="#5B89BB" fill-opacity="0.25"/>
<path d="M378.984 44H379.879L377.866 56H376.971L378.984 44Z" fill="#5B89BB" fill-opacity="0.25"/>
<path d="M381.126 44H380.231L378.217 56H379.112L381.126 44Z" fill="#5B89BB" fill-opacity="0.25"/>
<path d="M382.372 44H381.477L379.464 56H380.359L382.372 44Z" fill="#5B89BB" fill-opacity="0.25"/>
<path d="M383.619 44H382.724L380.71 56H381.605L383.619 44Z" fill="#5B89BB" fill-opacity="0.25"/>
<path d="M383.971 44H384.866L382.852 56H381.957L383.971 44Z" fill="#5B89BB" fill-opacity="0.25"/>
<path d="M385.217 44H386.112L384.098 56H383.203L385.217 44Z" fill="#5B89BB" fill-opacity="0.25"/>
<path d="M386.464 44H387.359L385.345 56H384.45L386.464 44Z" fill="#5B89BB" fill-opacity="0.25"/>
<path d="M388.605 44H387.71L385.697 56H386.591L388.605 44Z" fill="#5B89BB" fill-opacity="0.25"/>
<path d="M389.852 44H388.957L386.943 56H387.838L389.852 44Z" fill="#5B89BB" fill-opacity="0.25"/>
<path d="M391.098 44H390.203L388.19 56H389.085L391.098 44Z" fill="#5B89BB" fill-opacity="0.25"/>
<path d="M391.45 44H392.345L390.331 56H389.436L391.45 44Z" fill="#5B89BB" fill-opacity="0.25"/>
<path d="M392.696 44H393.591L391.578 56H390.683L392.696 44Z" fill="#5B89BB" fill-opacity="0.25"/>
<path d="M393.943 44H394.838L392.824 56H391.929L393.943 44Z" fill="#5B89BB" fill-opacity="0.25"/>
<path d="M396.084 44H395.19L393.176 56H394.071L396.084 44Z" fill="#5B89BB" fill-opacity="0.25"/>
<path d="M397.331 44H396.436L394.422 56H395.317L397.331 44Z" fill="#5B89BB" fill-opacity="0.25"/>
<path d="M397.683 44H398.578L396.564 56H395.669L397.683 44Z" fill="#5B89BB" fill-opacity="0.25"/>
<path d="M398.929 44H399.824L397.81 56H396.916L398.929 44Z" fill="#5B89BB" fill-opacity="0.25"/>
<path d="M400.176 44H401.071L399.057 56H398.162L400.176 44Z" fill="#5B89BB" fill-opacity="0.25"/>
<path d="M401.422 44H402.317L400.304 56H399.409L401.422 44Z" fill="#5B89BB" fill-opacity="0.25"/>
<path d="M403.564 44H402.669L400.655 56H401.55L403.564 44Z" fill="#5B89BB" fill-opacity="0.25"/>
<path d="M404.81 44H403.915L401.902 56H402.797L404.81 44Z" fill="#5B89BB" fill-opacity="0.25"/>
<path d="M406.057 44H405.162L403.148 56H404.043L406.057 44Z" fill="#5B89BB" fill-opacity="0.25"/>
<path d="M406.409 44H407.303L405.29 56H404.395L406.409 44Z" fill="#5B89BB" fill-opacity="0.25"/>
<path d="M407.655 44H408.55L406.536 56H405.641L407.655 44Z" fill="#5B89BB" fill-opacity="0.25"/>
<path d="M408.902 44H409.797L407.783 56H406.888L408.902 44Z" fill="#5B89BB" fill-opacity="0.25"/>
<path d="M411.043 44H410.148L408.134 56H409.029L411.043 44Z" fill="#5B89BB" fill-opacity="0.25"/>
<path d="M412.29 44H411.395L409.381 56H410.276L412.29 44Z" fill="#5B89BB" fill-opacity="0.25"/>
<path d="M413.536 44H412.641L410.628 56H411.523L413.536 44Z" fill="#5B89BB" fill-opacity="0.25"/>
<path d="M413.888 44H414.783L412.769 56H411.874L413.888 44Z" fill="#5B89BB" fill-opacity="0.25"/>
<path d="M415.134 44H416.029L414.016 56H413.121L415.134 44Z" fill="#5B89BB" fill-opacity="0.25"/>
<path d="M416.381 44H417.276L415.262 56H414.367L416.381 44Z" fill="#5B89BB" fill-opacity="0.25"/>
<path d="M418.522 44H417.627L415.614 56H416.509L418.522 44Z" fill="#5B89BB" fill-opacity="0.25"/>
<path d="M419.769 44H418.874L416.86 56H417.755L419.769 44Z" fill="#5B89BB" fill-opacity="0.25"/>
<path d="M421.016 44H420.121L418.107 56H419.002L421.016 44Z" fill="#5B89BB" fill-opacity="0.25"/>
<path d="M421.367 44H422.262L420.248 56H419.353L421.367 44Z" fill="#5B89BB" fill-opacity="0.25"/>
<path d="M422.614 44H423.509L421.495 56H420.6L422.614 44Z" fill="#5B89BB" fill-opacity="0.25"/>
<path d="M423.86 44H424.755L422.742 56H421.847L423.86 44Z" fill="#5B89BB" fill-opacity="0.25"/>
<path d="M426.002 44H425.107L423.093 56H423.988L426.002 44Z" fill="#5B89BB" fill-opacity="0.25"/>
<path d="M427.248 44H426.353L424.34 56H425.235L427.248 44Z" fill="#5B89BB" fill-opacity="0.25"/>
<path d="M428.495 44H427.6L425.586 56H426.481L428.495 44Z" fill="#5B89BB" fill-opacity="0.25"/>
<path d="M428.846 44H429.741L427.728 56H426.833L428.846 44Z" fill="#5B89BB" fill-opacity="0.25"/>
<path d="M430.093 44H430.988L428.974 56H428.079L430.093 44Z" fill="#5B89BB" fill-opacity="0.25"/>
<path d="M431.34 44H432.234L430.221 56H429.326L431.34 44Z" fill="#5B89BB" fill-opacity="0.25"/>
<path d="M433.481 44H432.586L430.572 56H431.467L433.481 44Z" fill="#5B89BB" fill-opacity="0.25"/>
<path d="M434.728 44H433.833L431.819 56H432.714L434.728 44Z" fill="#5B89BB" fill-opacity="0.25"/>
<path d="M435.974 44H435.079L433.066 56H433.96L435.974 44Z" fill="#5B89BB" fill-opacity="0.25"/>
<path d="M436.326 44H437.221L435.207 56H434.312L436.326 44Z" fill="#5B89BB" fill-opacity="0.25"/>
<path d="M437.572 44H438.467L436.454 56H435.559L437.572 44Z" fill="#5B89BB" fill-opacity="0.25"/>
<path d="M438.819 44H439.714L437.7 56H436.805L438.819 44Z" fill="#5B89BB" fill-opacity="0.25"/>
<path d="M440.96 44H440.065L438.052 56H438.947L440.96 44Z" fill="#5B89BB" fill-opacity="0.25"/>
<path d="M442.207 44H441.312L439.298 56H440.193L442.207 44Z" fill="#5B89BB" fill-opacity="0.25"/>
<path d="M443.453 44H442.559L440.545 56H441.44L443.453 44Z" fill="#5B89BB" fill-opacity="0.25"/>
<path d="M443.805 44H444.7L442.686 56H441.791L443.805 44Z" fill="#5B89BB" fill-opacity="0.25"/>
<path d="M445.052 44H445.947L443.933 56H443.038L445.052 44Z" fill="#5B89BB" fill-opacity="0.25"/>
<path d="M446.298 44H447.193L445.179 56H444.284L446.298 44Z" fill="#5B89BB" fill-opacity="0.25"/>
<path d="M448.44 44H447.545L445.531 56H446.426L448.44 44Z" fill="#5B89BB" fill-opacity="0.25"/>
<path d="M449.686 44H448.791L446.778 56H447.673L449.686 44Z" fill="#5B89BB" fill-opacity="0.25"/>
<path d="M450.933 44H450.038L448.024 56H448.919L450.933 44Z" fill="#5B89BB" fill-opacity="0.25"/>
<path d="M451.284 44H452.179L450.166 56H449.271L451.284 44Z" fill="#5B89BB" fill-opacity="0.25"/>
<path d="M452.531 44H453.426L451.412 56H450.517L452.531 44Z" fill="#5B89BB" fill-opacity="0.25"/>
<path d="M453.777 44H454.672L452.659 56H451.764L453.777 44Z" fill="#5B89BB" fill-opacity="0.25"/>
<path d="M455.919 44H455.024L453.01 56H453.905L455.919 44Z" fill="#5B89BB" fill-opacity="0.25"/>
<path d="M457.166 44H456.271L454.257 56H455.152L457.166 44Z" fill="#5B89BB" fill-opacity="0.25"/>
<path d="M457.517 44H458.412L456.398 56H455.503L457.517 44Z" fill="#5B89BB" fill-opacity="0.25"/>
<path d="M458.764 44H459.659L457.645 56H456.75L458.764 44Z" fill="#5B89BB" fill-opacity="0.25"/>
<path d="M460.01 44H460.905L458.891 56H457.997L460.01 44Z" fill="#5B89BB" fill-opacity="0.25"/>
<path d="M461.257 44H462.152L460.138 56H459.243L461.257 44Z" fill="#5B89BB" fill-opacity="0.25"/>
<path d="M463.398 44H462.503L460.49 56H461.385L463.398 44Z" fill="#5B89BB" fill-opacity="0.25"/>
<path d="M464.645 44H463.75L461.736 56H462.631L464.645 44Z" fill="#5B89BB" fill-opacity="0.25"/>
<path d="M465.891 44H464.996L462.983 56H463.878L465.891 44Z" fill="#5B89BB" fill-opacity="0.25"/>
<path d="M466.243 44H467.138L465.124 56H464.229L466.243 44Z" fill="#5B89BB" fill-opacity="0.25"/>
<path d="M467.49 44H468.384L466.371 56H465.476L467.49 44Z" fill="#5B89BB" fill-opacity="0.25"/>
<path d="M468.736 44H469.631L467.617 56H466.722L468.736 44Z" fill="#5B89BB" fill-opacity="0.25"/>
<path d="M470.878 44H469.983L467.969 56H468.864L470.878 44Z" fill="#5B89BB" fill-opacity="0.25"/>
<path d="M472.124 44H471.229L469.216 56H470.11L472.124 44Z" fill="#5B89BB" fill-opacity="0.25"/>
<path d="M473.371 44H472.476L470.462 56H471.357L473.371 44Z" fill="#5B89BB" fill-opacity="0.25"/>
<path d="M473.722 44H474.617L472.604 56H471.709L473.722 44Z" fill="#5B89BB" fill-opacity="0.25"/>
<path d="M474.969 44H475.864L473.85 56H472.955L474.969 44Z" fill="#5B89BB" fill-opacity="0.25"/>
<path d="M476.215 44H477.11L475.097 56H474.202L476.215 44Z" fill="#5B89BB" fill-opacity="0.25"/>
<path d="M478.357 44H477.462L475.448 56H476.343L478.357 44Z" fill="#5B89BB" fill-opacity="0.25"/>
<path d="M479.603 44H478.708L476.695 56H477.59L479.603 44Z" fill="#5B89BB" fill-opacity="0.25"/>
<path d="M480.85 44H479.955L477.941 56H478.836L480.85 44Z" fill="#5B89BB" fill-opacity="0.25"/>
<path d="M481.202 44H482.097L480.083 56H479.188L481.202 44Z" fill="#5B89BB" fill-opacity="0.25"/>
<path d="M482.448 44H483.343L481.329 56H480.434L482.448 44Z" fill="#5B89BB" fill-opacity="0.25"/>
<path d="M483.695 44H484.59L482.576 56H481.681L483.695 44Z" fill="#5B89BB" fill-opacity="0.25"/>
<path d="M485.836 44H484.941L482.928 56H483.823L485.836 44Z" fill="#5B89BB" fill-opacity="0.25"/>
<path d="M487.083 44H486.188L484.174 56H485.069L487.083 44Z" fill="#5B89BB" fill-opacity="0.25"/>
<path d="M488.329 44H487.434L485.421 56H486.316L488.329 44Z" fill="#5B89BB" fill-opacity="0.25"/>
<path d="M488.681 44H489.576L487.562 56H486.667L488.681 44Z" fill="#5B89BB" fill-opacity="0.25"/>
<path d="M489.927 44H490.822L488.809 56H487.914L489.927 44Z" fill="#5B89BB" fill-opacity="0.25"/>
<path d="M491.174 44H492.069L490.055 56H489.16L491.174 44Z" fill="#5B89BB" fill-opacity="0.25"/>
<path d="M493.316 44H492.421L490.407 56H491.302L493.316 44Z" fill="#5B89BB" fill-opacity="0.25"/>
<path d="M494.562 44H493.667L491.653 56H492.548L494.562 44Z" fill="#5B89BB" fill-opacity="0.25"/>
<path d="M495.809 44H494.914L492.9 56H493.795L495.809 44Z" fill="#5B89BB" fill-opacity="0.25"/>
<path d="M496.16 44H497.055L495.041 56H494.147L496.16 44Z" fill="#5B89BB" fill-opacity="0.25"/>
<path d="M497.407 44H498.302L496.288 56H495.393L497.407 44Z" fill="#5B89BB" fill-opacity="0.25"/>
<path d="M498.653 44H499.548L497.535 56H496.64L498.653 44Z" fill="#5B89BB" fill-opacity="0.25"/>
<path d="M500.795 44H499.9L497.886 56H498.781L500.795 44Z" fill="#5B89BB" fill-opacity="0.25"/>
<path d="M502.041 44H501.146L499.133 56H500.028L502.041 44Z" fill="#5B89BB" fill-opacity="0.25"/>
<path d="M503.288 44H502.393L500.379 56H501.274L503.288 44Z" fill="#5B89BB" fill-opacity="0.25"/>
<path d="M503.64 44H504.534L502.521 56H501.626L503.64 44Z" fill="#5B89BB" fill-opacity="0.25"/>
<path d="M504.886 44H505.781L503.767 56H502.872L504.886 44Z" fill="#5B89BB" fill-opacity="0.25"/>
<path d="M506.133 44H507.028L505.014 56H504.119L506.133 44Z" fill="#5B89BB" fill-opacity="0.25"/>
<path d="M508.274 44H507.379L505.366 56H506.26L508.274 44Z" fill="#5B89BB" fill-opacity="0.25"/>
<path d="M509.521 44H508.626L506.612 56H507.507L509.521 44Z" fill="#5B89BB" fill-opacity="0.25"/>
<path d="M510.767 44H509.872L507.859 56H508.754L510.767 44Z" fill="#5B89BB" fill-opacity="0.25"/>
<path d="M511.119 44H512.014L510 56H509.105L511.119 44Z" fill="#5B89BB" fill-opacity="0.25"/>
<path d="M512.365 44H513.26L511.247 56H510.352L512.365 44Z" fill="#5B89BB" fill-opacity="0.25"/>
<path d="M513.612 44H514.507L512.493 56H511.598L513.612 44Z" fill="#5B89BB" fill-opacity="0.25"/>
<path d="M515.753 44H514.858L512.845 56H513.74L515.753 44Z" fill="#5B89BB" fill-opacity="0.25"/>
<path d="M517 44H516.105L514.091 56H514.986L517 44Z" fill="#5B89BB" fill-opacity="0.25"/>
<path d="M-485.02 0H-482.807L-487.787 30H-490L-485.02 0Z" fill="#5B89BB" fill-opacity="0.25"/>
<path d="M-481.937 0H-479.724L-484.704 30H-486.917L-481.937 0Z" fill="#5B89BB" fill-opacity="0.25"/>
<path d="M-478.855 0H-476.641L-481.621 30H-483.834L-478.855 0Z" fill="#5B89BB" fill-opacity="0.25"/>
<path d="M-475.772 0H-473.559L-478.538 30H-480.752L-475.772 0Z" fill="#5B89BB" fill-opacity="0.25"/>
<path d="M-470.476 0H-472.689L-477.669 30H-475.456L-470.476 0Z" fill="#5B89BB" fill-opacity="0.25"/>
<path d="M-467.393 0H-469.606L-474.586 30H-472.373L-467.393 0Z" fill="#5B89BB" fill-opacity="0.25"/>
<path d="M-464.31 0H-466.524L-471.503 30H-469.29L-464.31 0Z" fill="#5B89BB" fill-opacity="0.25"/>
<path d="M-463.441 0H-461.228L-466.207 30H-468.421L-463.441 0Z" fill="#5B89BB" fill-opacity="0.25"/>
<path d="M-460.358 0H-458.145L-463.125 30H-465.338L-460.358 0Z" fill="#5B89BB" fill-opacity="0.25"/>
<path d="M-457.275 0H-455.062L-460.042 30H-462.255L-457.275 0Z" fill="#5B89BB" fill-opacity="0.25"/>
<path d="M-451.979 0H-454.193L-459.172 30H-456.959L-451.979 0Z" fill="#5B89BB" fill-opacity="0.25"/>
<path d="M-448.897 0H-451.11L-456.09 30H-453.876L-448.897 0Z" fill="#5B89BB" fill-opacity="0.25"/>
<path d="M-445.814 0H-448.027L-453.007 30H-450.794L-445.814 0Z" fill="#5B89BB" fill-opacity="0.25"/>
<path d="M-444.944 0H-442.731L-447.711 30H-449.924L-444.944 0Z" fill="#5B89BB" fill-opacity="0.25"/>
<path d="M-441.862 0H-439.648L-444.628 30H-446.841L-441.862 0Z" fill="#5B89BB" fill-opacity="0.25"/>
<path d="M-438.779 0H-436.566L-441.545 30H-443.759L-438.779 0Z" fill="#5B89BB" fill-opacity="0.25"/>
<path d="M-433.483 0H-435.696L-440.676 30H-438.463L-433.483 0Z" fill="#5B89BB" fill-opacity="0.25"/>
<path d="M-430.4 0H-432.613L-437.593 30H-435.38L-430.4 0Z" fill="#5B89BB" fill-opacity="0.25"/>
<path d="M-427.317 0H-429.53L-434.51 30H-432.297L-427.317 0Z" fill="#5B89BB" fill-opacity="0.25"/>
<path d="M-426.448 0H-424.234L-429.214 30H-431.428L-426.448 0Z" fill="#5B89BB" fill-opacity="0.25"/>
<path d="M-423.365 0H-421.152L-426.132 30H-428.345L-423.365 0Z" fill="#5B89BB" fill-opacity="0.25"/>
<path d="M-420.282 0H-418.069L-423.049 30H-425.262L-420.282 0Z" fill="#5B89BB" fill-opacity="0.25"/>
<path d="M-414.986 0H-417.199L-422.179 30H-419.966L-414.986 0Z" fill="#5B89BB" fill-opacity="0.25"/>
<path d="M-411.903 0H-414.117L-419.097 30H-416.883L-411.903 0Z" fill="#5B89BB" fill-opacity="0.25"/>
<path d="M-408.821 0H-411.034L-416.014 30H-413.801L-408.821 0Z" fill="#5B89BB" fill-opacity="0.25"/>
<path d="M-407.951 0H-405.738L-410.718 30H-412.931L-407.951 0Z" fill="#5B89BB" fill-opacity="0.25"/>
<path d="M-404.868 0H-402.655L-407.635 30H-409.848L-404.868 0Z" fill="#5B89BB" fill-opacity="0.25"/>
<path d="M-401.786 0H-399.572L-404.552 30H-406.766L-401.786 0Z" fill="#5B89BB" fill-opacity="0.25"/>
<path d="M-396.49 0H-398.703L-403.683 30H-401.47L-396.49 0Z" fill="#5B89BB" fill-opacity="0.25"/>
<path d="M-393.407 0H-395.62L-400.6 30H-398.387L-393.407 0Z" fill="#5B89BB" fill-opacity="0.25"/>
<path d="M-390.324 0H-392.537L-397.517 30H-395.304L-390.324 0Z" fill="#5B89BB" fill-opacity="0.25"/>
<path d="M-389.455 0H-387.241L-392.221 30H-394.434L-389.455 0Z" fill="#5B89BB" fill-opacity="0.25"/>
<path d="M-386.372 0H-384.159L-389.138 30H-391.352L-386.372 0Z" fill="#5B89BB" fill-opacity="0.25"/>
<path d="M-383.289 0H-381.076L-386.056 30H-388.269L-383.289 0Z" fill="#5B89BB" fill-opacity="0.25"/>
<path d="M-377.993 0H-380.206L-385.186 30H-382.973L-377.993 0Z" fill="#5B89BB" fill-opacity="0.25"/>
<path d="M-374.91 0H-377.124L-382.103 30H-379.89L-374.91 0Z" fill="#5B89BB" fill-opacity="0.25"/>
<path d="M-371.828 0H-374.041L-379.021 30H-376.807L-371.828 0Z" fill="#5B89BB" fill-opacity="0.25"/>
<path d="M-370.958 0H-368.745L-373.725 30H-375.938L-370.958 0Z" fill="#5B89BB" fill-opacity="0.25"/>
<path d="M-367.875 0H-365.662L-370.642 30H-372.855L-367.875 0Z" fill="#5B89BB" fill-opacity="0.25"/>
<path d="M-364.793 0H-362.579L-367.559 30H-369.772L-364.793 0Z" fill="#5B89BB" fill-opacity="0.25"/>
<path d="M-359.497 0H-361.71L-366.69 30H-364.476L-359.497 0Z" fill="#5B89BB" fill-opacity="0.25"/>
<path d="M-356.414 0H-358.627L-363.607 30H-361.394L-356.414 0Z" fill="#5B89BB" fill-opacity="0.25"/>
<path d="M-353.331 0H-355.544L-360.524 30H-358.311L-353.331 0Z" fill="#5B89BB" fill-opacity="0.25"/>
<path d="M-352.462 0H-350.248L-355.228 30H-357.441L-352.462 0Z" fill="#5B89BB" fill-opacity="0.25"/>
<path d="M-349.379 0H-347.166L-352.145 30H-354.359L-349.379 0Z" fill="#5B89BB" fill-opacity="0.25"/>
<path d="M-346.296 0H-344.083L-349.063 30H-351.276L-346.296 0Z" fill="#5B89BB" fill-opacity="0.25"/>
<path d="M-341 0H-343.213L-348.193 30H-345.98L-341 0Z" fill="#5B89BB" fill-opacity="0.25"/>
<path d="M-337.917 0H-340.131L-345.11 30H-342.897L-337.917 0Z" fill="#5B89BB" fill-opacity="0.25"/>
<path d="M-337.048 0H-334.834L-339.814 30H-342.028L-337.048 0Z" fill="#5B89BB" fill-opacity="0.25"/>
<path d="M-333.965 0H-331.752L-336.732 30H-338.945L-333.965 0Z" fill="#5B89BB" fill-opacity="0.25"/>
<path d="M-330.882 0H-328.669L-333.649 30H-335.862L-330.882 0Z" fill="#5B89BB" fill-opacity="0.25"/>
<path d="M-327.799 0H-325.586L-330.566 30H-332.779L-327.799 0Z" fill="#5B89BB" fill-opacity="0.25"/>
<path d="M-322.503 0H-324.717L-329.697 30H-327.483L-322.503 0Z" fill="#5B89BB" fill-opacity="0.25"/>
<path d="M-319.421 0H-321.634L-326.614 30H-324.401L-319.421 0Z" fill="#5B89BB" fill-opacity="0.25"/>
<path d="M-316.338 0H-318.551L-323.531 30H-321.318L-316.338 0Z" fill="#5B89BB" fill-opacity="0.25"/>
<path d="M-315.468 0H-313.255L-318.235 30H-320.448L-315.468 0Z" fill="#5B89BB" fill-opacity="0.25"/>
<path d="M-312.386 0H-310.172L-315.152 30H-317.366L-312.386 0Z" fill="#5B89BB" fill-opacity="0.25"/>
<path d="M-309.303 0H-307.09L-312.07 30H-314.283L-309.303 0Z" fill="#5B89BB" fill-opacity="0.25"/>
<path d="M-304.007 0H-306.22L-311.2 30H-308.987L-304.007 0Z" fill="#5B89BB" fill-opacity="0.25"/>
<path d="M-300.924 0H-303.137L-308.117 30H-305.904L-300.924 0Z" fill="#5B89BB" fill-opacity="0.25"/>
<path d="M-297.841 0H-300.055L-305.034 30H-302.821L-297.841 0Z" fill="#5B89BB" fill-opacity="0.25"/>
<path d="M-296.972 0H-294.759L-299.738 30H-301.952L-296.972 0Z" fill="#5B89BB" fill-opacity="0.25"/>
<path d="M-293.889 0H-291.676L-296.656 30H-298.869L-293.889 0Z" fill="#5B89BB" fill-opacity="0.25"/>
<path d="M-290.806 0H-288.593L-293.573 30H-295.786L-290.806 0Z" fill="#5B89BB" fill-opacity="0.25"/>
<path d="M-285.51 0H-287.724L-292.703 30H-290.49L-285.51 0Z" fill="#5B89BB" fill-opacity="0.25"/>
<path d="M-282.428 0H-284.641L-289.621 30H-287.407L-282.428 0Z" fill="#5B89BB" fill-opacity="0.25"/>
<path d="M-279.345 0H-281.558L-286.538 30H-284.325L-279.345 0Z" fill="#5B89BB" fill-opacity="0.25"/>
<path d="M-278.475 0H-276.262L-281.242 30H-283.455L-278.475 0Z" fill="#5B89BB" fill-opacity="0.25"/>
<path d="M-275.393 0H-273.179L-278.159 30H-280.372L-275.393 0Z" fill="#5B89BB" fill-opacity="0.25"/>
<path d="M-272.31 0H-270.097L-275.076 30H-277.29L-272.31 0Z" fill="#5B89BB" fill-opacity="0.25"/>
<path d="M-267.014 0H-269.227L-274.207 30H-271.994L-267.014 0Z" fill="#5B89BB" fill-opacity="0.25"/>
<path d="M-263.931 0H-266.144L-271.124 30H-268.911L-263.931 0Z" fill="#5B89BB" fill-opacity="0.25"/>
<path d="M-260.848 0H-263.061L-268.041 30H-265.828L-260.848 0Z" fill="#5B89BB" fill-opacity="0.25"/>
<path d="M-259.979 0H-257.766L-262.745 30H-264.959L-259.979 0Z" fill="#5B89BB" fill-opacity="0.25"/>
<path d="M-256.896 0H-254.683L-259.663 30H-261.876L-256.896 0Z" fill="#5B89BB" fill-opacity="0.25"/>
<path d="M-253.813 0H-251.6L-256.58 30H-258.793L-253.813 0Z" fill="#5B89BB" fill-opacity="0.25"/>
<path d="M-248.517 0H-250.73L-255.71 30H-253.497L-248.517 0Z" fill="#5B89BB" fill-opacity="0.25"/>
<path d="M-245.434 0H-247.648L-252.628 30H-250.414L-245.434 0Z" fill="#5B89BB" fill-opacity="0.25"/>
<path d="M-242.352 0H-244.565L-249.545 30H-247.332L-242.352 0Z" fill="#5B89BB" fill-opacity="0.25"/>
<path d="M-241.482 0H-239.269L-244.249 30H-246.462L-241.482 0Z" fill="#5B89BB" fill-opacity="0.25"/>
<path d="M-238.399 0H-236.186L-241.166 30H-243.379L-238.399 0Z" fill="#5B89BB" fill-opacity="0.25"/>
<path d="M-235.317 0H-233.103L-238.083 30H-240.297L-235.317 0Z" fill="#5B89BB" fill-opacity="0.25"/>
<path d="M-230.021 0H-232.234L-237.214 30H-235.001L-230.021 0Z" fill="#5B89BB" fill-opacity="0.25"/>
<path d="M-226.938 0H-229.151L-234.131 30H-231.918L-226.938 0Z" fill="#5B89BB" fill-opacity="0.25"/>
<path d="M-223.855 0H-226.068L-231.048 30H-228.835L-223.855 0Z" fill="#5B89BB" fill-opacity="0.25"/>
<path d="M-222.986 0H-220.772L-225.752 30H-227.966L-222.986 0Z" fill="#5B89BB" fill-opacity="0.25"/>
<path d="M-219.903 0H-217.69L-222.67 30H-224.883L-219.903 0Z" fill="#5B89BB" fill-opacity="0.25"/>
<path d="M-216.82 0H-214.607L-219.587 30H-221.8L-216.82 0Z" fill="#5B89BB" fill-opacity="0.25"/>
<path d="M-211.524 0H-213.737L-218.717 30H-216.504L-211.524 0Z" fill="#5B89BB" fill-opacity="0.25"/>
<path d="M-208.441 0H-210.655L-215.634 30H-213.421L-208.441 0Z" fill="#5B89BB" fill-opacity="0.25"/>
<path d="M-205.359 0H-207.572L-212.552 30H-210.339L-205.359 0Z" fill="#5B89BB" fill-opacity="0.25"/>
<path d="M-204.489 0H-202.276L-207.256 30H-209.469L-204.489 0Z" fill="#5B89BB" fill-opacity="0.25"/>
<path d="M-201.406 0H-199.193L-204.173 30H-206.386L-201.406 0Z" fill="#5B89BB" fill-opacity="0.25"/>
<path d="M-198.324 0H-196.11L-201.09 30H-203.303L-198.324 0Z" fill="#5B89BB" fill-opacity="0.25"/>
<path d="M-193.028 0H-195.241L-200.221 30H-198.007L-193.028 0Z" fill="#5B89BB" fill-opacity="0.25"/>
<path d="M-189.945 0H-192.158L-197.138 30H-194.925L-189.945 0Z" fill="#5B89BB" fill-opacity="0.25"/>
<path d="M-189.075 0H-186.862L-191.842 30H-194.055L-189.075 0Z" fill="#5B89BB" fill-opacity="0.25"/>
<path d="M-185.993 0H-183.779L-188.759 30H-190.972L-185.993 0Z" fill="#5B89BB" fill-opacity="0.25"/>
<path d="M-182.91 0H-180.697L-185.676 30H-187.89L-182.91 0Z" fill="#5B89BB" fill-opacity="0.25"/>
<path d="M-179.827 0H-177.614L-182.594 30H-184.807L-179.827 0Z" fill="#5B89BB" fill-opacity="0.25"/>
<path d="M-174.531 0H-176.744L-181.724 30H-179.511L-174.531 0Z" fill="#5B89BB" fill-opacity="0.25"/>
<path d="M-171.448 0H-173.661L-178.641 30H-176.428L-171.448 0Z" fill="#5B89BB" fill-opacity="0.25"/>
<path d="M-168.366 0H-170.579L-175.559 30H-173.345L-168.366 0Z" fill="#5B89BB" fill-opacity="0.25"/>
<path d="M-167.496 0H-165.283L-170.263 30H-172.476L-167.496 0Z" fill="#5B89BB" fill-opacity="0.25"/>
<path d="M-164.413 0H-162.2L-167.18 30H-169.393L-164.413 0Z" fill="#5B89BB" fill-opacity="0.25"/>
<path d="M-161.33 0H-159.117L-164.097 30H-166.31L-161.33 0Z" fill="#5B89BB" fill-opacity="0.25"/>
<path d="M-156.034 0H-158.248L-163.228 30H-161.014L-156.034 0Z" fill="#5B89BB" fill-opacity="0.25"/>
<path d="M-152.952 0H-155.165L-160.145 30H-157.932L-152.952 0Z" fill="#5B89BB" fill-opacity="0.25"/>
<path d="M-149.869 0H-152.082L-157.062 30H-154.849L-149.869 0Z" fill="#5B89BB" fill-opacity="0.25"/>
<path d="M-148.999 0H-146.786L-151.766 30H-153.979L-148.999 0Z" fill="#5B89BB" fill-opacity="0.25"/>
<path d="M-145.917 0H-143.703L-148.683 30H-150.897L-145.917 0Z" fill="#5B89BB" fill-opacity="0.25"/>
<path d="M-142.834 0H-140.621L-145.601 30H-147.814L-142.834 0Z" fill="#5B89BB" fill-opacity="0.25"/>
<path d="M-137.538 0H-139.751L-144.731 30H-142.518L-137.538 0Z" fill="#5B89BB" fill-opacity="0.25"/>
<path d="M-134.455 0H-136.668L-141.648 30H-139.435L-134.455 0Z" fill="#5B89BB" fill-opacity="0.25"/>
<path d="M-131.372 0H-133.586L-138.566 30H-136.352L-131.372 0Z" fill="#5B89BB" fill-opacity="0.25"/>
<path d="M-130.503 0H-128.29L-133.27 30H-135.483L-130.503 0Z" fill="#5B89BB" fill-opacity="0.25"/>
<path d="M-127.42 0H-125.207L-130.187 30H-132.4L-127.42 0Z" fill="#5B89BB" fill-opacity="0.25"/>
<path d="M-124.337 0H-122.124L-127.104 30H-129.317L-124.337 0Z" fill="#5B89BB" fill-opacity="0.25"/>
<path d="M-119.041 0H-121.255L-126.234 30H-124.021L-119.041 0Z" fill="#5B89BB" fill-opacity="0.25"/>
<path d="M-115.959 0H-118.172L-123.152 30H-120.939L-115.959 0Z" fill="#5B89BB" fill-opacity="0.25"/>
<path d="M-112.876 0H-115.089L-120.069 30H-117.856L-112.876 0Z" fill="#5B89BB" fill-opacity="0.25"/>
<path d="M-112.006 0H-109.793L-114.773 30H-116.986L-112.006 0Z" fill="#5B89BB" fill-opacity="0.25"/>
<path d="M-108.924 0H-106.71L-111.69 30H-113.903L-108.924 0Z" fill="#5B89BB" fill-opacity="0.25"/>
<path d="M-105.841 0H-103.628L-108.607 30H-110.821L-105.841 0Z" fill="#5B89BB" fill-opacity="0.25"/>
<path d="M-100.545 0H-102.758L-107.738 30H-105.525L-100.545 0Z" fill="#5B89BB" fill-opacity="0.25"/>
<path d="M-97.4621 0H-99.6753L-104.655 30H-102.442L-97.4621 0Z" fill="#5B89BB" fill-opacity="0.25"/>
<path d="M-94.3793 0H-96.5925L-101.572 30H-99.3592L-94.3793 0Z" fill="#5B89BB" fill-opacity="0.25"/>
<path d="M-93.5098 0H-91.2965L-96.2764 30H-98.4897L-93.5098 0Z" fill="#5B89BB" fill-opacity="0.25"/>
<path d="M-90.427 0H-88.2138L-93.1937 30H-95.4069L-90.427 0Z" fill="#5B89BB" fill-opacity="0.25"/>
<path d="M-87.3442 0H-85.131L-90.1109 30H-92.3241L-87.3442 0Z" fill="#5B89BB" fill-opacity="0.25"/>
<path d="M-82.0483 0H-84.2615L-89.2414 30H-87.0281L-82.0483 0Z" fill="#5B89BB" fill-opacity="0.25"/>
<path d="M-78.9655 0H-81.1787L-86.1586 30H-83.9454L-78.9655 0Z" fill="#5B89BB" fill-opacity="0.25"/>
<path d="M-75.8828 0H-78.096L-83.0759 30H-80.8626L-75.8828 0Z" fill="#5B89BB" fill-opacity="0.25"/>
<path d="M-75.0132 0H-72.8L-77.7799 30H-79.9931L-75.0132 0Z" fill="#5B89BB" fill-opacity="0.25"/>
<path d="M-71.9305 0H-69.7172L-74.6971 30H-76.9103L-71.9305 0Z" fill="#5B89BB" fill-opacity="0.25"/>
<path d="M-68.8477 0H-66.6345L-71.6143 30H-73.8276L-68.8477 0Z" fill="#5B89BB" fill-opacity="0.25"/>
<path d="M-63.5517 0H-65.765L-70.7448 30H-68.5316L-63.5517 0Z" fill="#5B89BB" fill-opacity="0.25"/>
<path d="M-60.469 0H-62.6822L-67.662 30H-65.4489L-60.469 0Z" fill="#5B89BB" fill-opacity="0.25"/>
<path d="M-57.3862 0H-59.5994L-64.5793 30H-62.3661L-57.3862 0Z" fill="#5B89BB" fill-opacity="0.25"/>
<path d="M-56.5167 0H-54.3034L-59.2833 30H-61.4966L-56.5167 0Z" fill="#5B89BB" fill-opacity="0.25"/>
<path d="M-53.4339 0H-51.2207L-56.2006 30H-58.4138L-53.4339 0Z" fill="#5B89BB" fill-opacity="0.25"/>
<path d="M-50.3511 0H-48.1379L-53.1178 30H-55.331L-50.3511 0Z" fill="#5B89BB" fill-opacity="0.25"/>
<path d="M-45.0552 0H-47.2685L-52.2483 30H-50.035L-45.0552 0Z" fill="#5B89BB" fill-opacity="0.25"/>
<path d="M-41.9724 0H-44.1857L-49.1655 30H-46.9522L-41.9724 0Z" fill="#5B89BB" fill-opacity="0.25"/>
<path d="M-41.1029 0H-38.8896L-43.8695 30H-46.0828L-41.1029 0Z" fill="#5B89BB" fill-opacity="0.25"/>
<path d="M-38.0201 0H-35.8069L-40.7868 30H-43L-38.0201 0Z" fill="#5B89BB" fill-opacity="0.25"/>
<path d="M-34.9373 0H-32.7241L-37.704 30H-39.9172L-34.9373 0Z" fill="#5B89BB" fill-opacity="0.25"/>
<path d="M-31.8546 0H-29.6414L-34.6212 30H-36.8345L-31.8546 0Z" fill="#5B89BB" fill-opacity="0.25"/>
<path d="M-26.5586 0H-28.7719L-33.7517 30H-31.5385L-26.5586 0Z" fill="#5B89BB" fill-opacity="0.25"/>
<path d="M-23.4759 0H-25.6891L-30.6689 30H-28.4557L-23.4759 0Z" fill="#5B89BB" fill-opacity="0.25"/>
<path d="M-20.3931 0H-22.6063L-27.5862 30H-25.373L-20.3931 0Z" fill="#5B89BB" fill-opacity="0.25"/>
<path d="M-19.5236 0H-17.3103L-22.2902 30H-24.5034L-19.5236 0Z" fill="#5B89BB" fill-opacity="0.25"/>
<path d="M-16.4408 0H-14.2276L-19.2075 30H-21.4207L-16.4408 0Z" fill="#5B89BB" fill-opacity="0.25"/>
<path d="M-13.358 0H-11.1448L-16.1247 30H-18.3379L-13.358 0Z" fill="#5B89BB" fill-opacity="0.25"/>
<path d="M-8.06207 0H-10.2753L-15.2552 30H-13.0419L-8.06207 0Z" fill="#5B89BB" fill-opacity="0.25"/>
<path d="M-4.97931 0H-7.19254L-12.1724 30H-9.9592L-4.97931 0Z" fill="#5B89BB" fill-opacity="0.25"/>
<path d="M-1.89655 0H-4.10977L-9.08966 30H-6.87643L-1.89655 0Z" fill="#5B89BB" fill-opacity="0.25"/>
<path d="M-1.02701 0H1.18622L-3.79367 30H-6.0069L-1.02701 0Z" fill="#5B89BB" fill-opacity="0.25"/>
<path d="M2.05576 0H4.26898L-0.710907 30H-2.92413L2.05576 0Z" fill="#5B89BB" fill-opacity="0.25"/>
<path d="M5.13852 0H7.35175L2.37186 30H0.15863L5.13852 0Z" fill="#5B89BB" fill-opacity="0.25"/>
<path d="M10.4345 0H8.22125L3.24139 30H5.45462L10.4345 0Z" fill="#5B89BB" fill-opacity="0.25"/>
<path d="M13.5172 0H11.304L6.32416 30H8.53738L13.5172 0Z" fill="#5B89BB" fill-opacity="0.25"/>
<path d="M16.6 0H14.3868L9.40689 30H11.6201L16.6 0Z" fill="#5B89BB" fill-opacity="0.25"/>
<path d="M17.4695 0H19.6828L14.7029 30H12.4897L17.4695 0Z" fill="#5B89BB" fill-opacity="0.25"/>
<path d="M20.5523 0H22.7655L17.7856 30H15.5724L20.5523 0Z" fill="#5B89BB" fill-opacity="0.25"/>
<path d="M23.6351 0H25.8483L20.8684 30H18.6552L23.6351 0Z" fill="#5B89BB" fill-opacity="0.25"/>
<path d="M28.931 0H26.7178L21.7379 30H23.9512L28.931 0Z" fill="#5B89BB" fill-opacity="0.25"/>
<path d="M32.0138 0H29.8006L24.8207 30H27.0339L32.0138 0Z" fill="#5B89BB" fill-opacity="0.25"/>
<path d="M35.0966 0H32.8834L27.9034 30H30.1167L35.0966 0Z" fill="#5B89BB" fill-opacity="0.25"/>
<path d="M35.9661 0H38.1793L33.1995 30H30.9862L35.9661 0Z" fill="#5B89BB" fill-opacity="0.25"/>
<path d="M39.0488 0H41.2621L36.2822 30H34.069L39.0488 0Z" fill="#5B89BB" fill-opacity="0.25"/>
<path d="M42.1316 0H44.3448L39.3649 30H37.1517L42.1316 0Z" fill="#5B89BB" fill-opacity="0.25"/>
<path d="M47.4276 0H45.2144L40.2345 30H42.4477L47.4276 0Z" fill="#5B89BB" fill-opacity="0.25"/>
<path d="M50.5104 0H48.2971L43.3173 30H45.5305L50.5104 0Z" fill="#5B89BB" fill-opacity="0.25"/>
<path d="M53.5931 0H51.3799L46.4 30H48.6132L53.5931 0Z" fill="#5B89BB" fill-opacity="0.25"/>
<path d="M54.4626 0H56.6758L51.696 30H49.4828L54.4626 0Z" fill="#5B89BB" fill-opacity="0.25"/>
<path d="M57.5454 0H59.7586L54.7787 30H52.5656L57.5454 0Z" fill="#5B89BB" fill-opacity="0.25"/>
<path d="M60.6282 0H62.8414L57.8615 30H55.6483L60.6282 0Z" fill="#5B89BB" fill-opacity="0.25"/>
<path d="M65.9241 0H63.7109L58.731 30H60.9443L65.9241 0Z" fill="#5B89BB" fill-opacity="0.25"/>
<path d="M69.0069 0H66.7937L61.8138 30H64.027L69.0069 0Z" fill="#5B89BB" fill-opacity="0.25"/>
<path d="M72.0897 0H69.8765L64.8965 30H67.1098L72.0897 0Z" fill="#5B89BB" fill-opacity="0.25"/>
<path d="M72.9592 0H75.1724L70.1926 30H67.9793L72.9592 0Z" fill="#5B89BB" fill-opacity="0.25"/>
<path d="M76.0419 0H78.2552L73.2753 30H71.0621L76.0419 0Z" fill="#5B89BB" fill-opacity="0.25"/>
<path d="M79.1247 0H81.338L76.358 30H74.1448L79.1247 0Z" fill="#5B89BB" fill-opacity="0.25"/>
<path d="M84.4207 0H82.2075L77.2276 30H79.4408L84.4207 0Z" fill="#5B89BB" fill-opacity="0.25"/>
<path d="M87.5035 0H85.2902L80.3104 30H82.5236L87.5035 0Z" fill="#5B89BB" fill-opacity="0.25"/>
<path d="M90.5862 0H88.373L83.3931 30H85.6063L90.5862 0Z" fill="#5B89BB" fill-opacity="0.25"/>
<path d="M91.4557 0H93.6689L88.6891 30H86.4759L91.4557 0Z" fill="#5B89BB" fill-opacity="0.25"/>
<path d="M94.5385 0H96.7517L91.7719 30H89.5587L94.5385 0Z" fill="#5B89BB" fill-opacity="0.25"/>
<path d="M97.6213 0H99.8345L94.8546 30H92.6414L97.6213 0Z" fill="#5B89BB" fill-opacity="0.25"/>
<path d="M102.917 0H100.704L95.7241 30H97.9374L102.917 0Z" fill="#5B89BB" fill-opacity="0.25"/>
<path d="M106 0H103.787L98.8069 30H101.02L106 0Z" fill="#5B89BB" fill-opacity="0.25"/>
<rect width="230" height="32" transform="translate(0 14)" fill="#5B89BB"/>
<path d="M60.1691 33.104H57.9611V33.584H60.1691V33.104ZM49.7691 33.104V31.36H55.7051V30.928H51.3531V29.392H55.7051V28.912H51.6891V25.52H55.7051V25.04H50.1531V23.232H55.7051V22.32H57.9611V23.232H63.6411V25.04H57.9611V25.52H62.1531V28.912H57.9611V29.392H62.4251V31.36H64.0251V33.104H62.4251V35.888H60.1691V35.232H57.9611V35.424C57.9611 36.48 57.7211 36.928 57.0651 37.248C56.4251 37.536 55.5771 37.568 54.2811 37.568C54.1691 37.04 53.8331 36.24 53.5611 35.776C54.1851 35.808 55.0811 35.808 55.3211 35.808C55.6091 35.792 55.7051 35.696 55.7051 35.424V35.232H51.2571V33.584H55.7051V33.104H49.7691ZM53.8011 27.488H55.7051V26.944H53.8011V27.488ZM57.9611 31.36H60.1691V30.928H57.9611V31.36ZM57.9611 27.488H59.8811V26.944H57.9611V27.488ZM74.0602 32.624V31.904H71.9642V32.624H74.0602ZM69.1162 26.704V24.608H72.0602C71.8202 24.112 71.4202 23.52 71.0682 23.072L73.1802 22.304C73.7082 22.896 74.3002 23.696 74.5402 24.304L73.7082 24.608H77.7242C78.1562 23.888 78.6042 23.008 78.8602 22.288L81.2762 23.024C80.9402 23.584 80.5882 24.128 80.2522 24.608H83.0842V26.704H69.1162ZM69.8682 37.424V27.616H76.1882V35.344C76.1882 36.272 76.0122 36.8 75.4522 37.12C74.8922 37.456 74.1882 37.488 73.2922 37.488C73.1962 36.912 72.8922 36.048 72.6042 35.536C73.0522 35.568 73.6282 35.568 73.8202 35.552C73.9962 35.552 74.0602 35.488 74.0602 35.312V34.304H71.9642V37.424H69.8682ZM71.9642 30.224H74.0602V29.552H71.9642V30.224ZM77.1642 34.352V27.792H79.1962V34.352H77.1642ZM78.1562 35.28C78.8442 35.328 79.6282 35.328 79.8842 35.312C80.1242 35.312 80.2042 35.248 80.2042 35.04V27.376H82.3642V35.072C82.3642 36.144 82.1882 36.72 81.5162 37.072C80.8602 37.424 80.0122 37.488 78.9402 37.472C78.8282 36.848 78.4762 35.872 78.1562 35.28ZM96.1913 35.264C96.3993 34.848 96.6553 34.272 96.8153 33.776H93.8873C94.1433 34.24 94.3673 34.784 94.4633 35.184L93.9193 35.344H96.5593L96.1913 35.264ZM87.8713 28.704C88.6713 28.352 89.4553 27.856 90.1593 27.28C89.7753 26.896 89.2153 26.448 88.7673 26.128L89.9513 24.848C90.4473 25.136 91.0873 25.584 91.5033 25.968C91.8233 25.584 92.1273 25.168 92.3993 24.752H89.6793V22.896H93.4713L93.8393 22.8L95.2793 23.568C94.8953 24.64 94.3833 25.616 93.7593 26.496H97.0073C96.2873 25.456 95.6793 24.272 95.1673 22.992L97.0713 22.384C97.2633 22.864 97.4873 23.344 97.7433 23.792C98.2073 23.36 98.6713 22.88 99.0073 22.48L100.655 23.712C100.015 24.256 99.3433 24.8 98.7193 25.232C98.8793 25.44 99.0553 25.632 99.2313 25.824C99.7753 25.344 100.335 24.8 100.719 24.336L102.335 25.52C101.775 26.032 101.135 26.56 100.559 26.992C101.215 27.488 101.935 27.904 102.719 28.208C102.207 28.656 101.551 29.552 101.231 30.144C100.751 29.904 100.287 29.632 99.8393 29.328V33.776H98.6873L99.0713 33.856C98.7993 34.432 98.5433 34.944 98.3353 35.344H101.871V37.232H88.7993V35.344H92.2233C92.0953 34.896 91.8553 34.368 91.6313 33.952L92.3033 33.776H90.7513V29.456C90.2553 29.792 89.7273 30.112 89.1993 30.384C88.9113 29.888 88.3193 29.104 87.8713 28.704ZM91.2153 29.104H99.5193C99.0393 28.736 98.5593 28.32 98.1433 27.872V28.416H92.5113V27.968C92.1113 28.384 91.6793 28.752 91.2153 29.104ZM92.8953 31.952H97.5673V30.928H92.8953V31.952ZM109.09 31.504C109.314 32.352 109.506 33.424 109.586 34.144L108.146 34.56C108.114 33.824 107.922 32.72 107.714 31.872L109.09 31.504ZM106.978 26.096C108.21 24.992 109.042 23.552 109.49 22.32H111.266C112.146 23.088 113.266 24.192 113.81 25.024L112.802 26.32H112.818V28.24H111.474V29.104H113.218V31.056H111.474V33.728C111.65 33.04 111.842 32.08 111.922 31.392L113.458 31.776C113.186 32.656 112.946 33.584 112.754 34.208L111.474 33.856V34.512C112.05 34.4 112.642 34.304 113.218 34.192L113.266 34.672C114.05 34.208 115.042 33.568 116.018 32.912L116.434 34V30.064H113.474V28.192H117.906L118.002 27.408H116.002L115.922 27.808L113.826 27.648C114.162 26.256 114.562 24.048 114.786 22.304L116.866 22.496L116.754 23.312H118.69L119.026 23.232L120.594 23.392C120.466 24.928 120.242 26.656 120.018 28.192H121.634V30.064H118.53V30.544C118.658 31.056 118.85 31.552 119.058 32.016C119.394 31.456 119.778 30.704 119.986 30.144L121.714 31.024C121.154 31.792 120.642 32.56 120.21 33.072L119.346 32.592C119.954 33.664 120.818 34.528 121.954 35.024C121.538 35.424 120.93 36.256 120.658 36.832C119.778 36.336 119.074 35.632 118.53 34.752V35.392C118.53 36.288 118.402 36.832 117.874 37.168C117.362 37.488 116.738 37.52 115.938 37.52C115.874 36.928 115.602 36.096 115.362 35.568C114.834 35.984 114.29 36.368 113.794 36.72L113.362 35.984L113.378 36.112C111.49 36.528 109.474 36.928 107.906 37.264L107.49 35.168C108.082 35.088 108.818 34.976 109.586 34.832V31.056H107.666V29.104H109.586V28.24H108.354V27.536L108.274 27.616C108.002 27.152 107.378 26.4 106.978 26.096ZM109.458 26.32H112.114C111.73 25.728 111.186 25.04 110.674 24.48C110.338 25.072 109.938 25.696 109.458 26.32ZM113.378 31.088L114.85 30.16C115.394 30.768 116.002 31.632 116.242 32.24L114.658 33.264C114.466 32.656 113.906 31.744 113.378 31.088ZM115.394 35.552C115.698 35.568 116.098 35.568 116.226 35.568C116.386 35.568 116.434 35.52 116.434 35.36V34.752L115.394 35.552ZM116.322 25.728H118.242L118.306 24.992H116.466L116.322 25.728ZM135.382 26.432H133.782V27.088H135.382V26.432ZM126.422 35.056C126.982 34.704 127.606 34.256 128.198 33.792V30.656H126.614V28.512H130.31V33.632C130.822 34.624 131.734 35.04 133.174 35.104C135.078 35.2 138.726 35.152 140.998 34.944C140.758 35.472 140.422 36.544 140.31 37.2C138.326 37.312 135.078 37.344 133.142 37.248C131.43 37.168 130.278 36.752 129.382 35.536C128.806 36.128 128.214 36.688 127.446 37.376L126.422 35.056ZM126.614 24.048L128.31 22.736C129.142 23.44 130.198 24.48 130.678 25.232L128.854 26.704C128.438 25.936 127.446 24.832 126.614 24.048ZM129.51 27.12C130.87 26.032 132.118 24.24 132.79 22.384L134.998 23.056C134.79 23.536 134.582 24.016 134.358 24.496H135.67C135.894 23.84 136.086 23.12 136.214 22.528L138.662 22.976C138.422 23.488 138.166 24.016 137.926 24.496H140.278V26.432H137.478V27.088H139.878V28.944H137.478V29.616H139.798V31.472H137.478V32.192H140.55V34.128H131.654V28.448C131.462 28.64 131.302 28.816 131.126 28.976C130.79 28.496 129.974 27.552 129.51 27.12ZM133.782 32.192H135.382V31.472H133.782V32.192ZM133.782 29.616H135.382V28.944H133.782V29.616ZM159.593 25.408H152.185V23.2H159.593V25.408ZM145.465 30.624C146.985 29.504 148.649 27.648 149.625 25.84L151.721 26.688C151.273 27.488 150.729 28.32 150.137 29.12V37.52H147.913V31.744C147.593 32.064 147.273 32.384 146.953 32.656C146.649 32.16 145.897 31.104 145.465 30.624ZM145.625 25.712C146.889 24.88 148.345 23.424 149.065 22.32L151.193 23.248C150.025 24.832 148.345 26.544 146.841 27.632C146.569 27.104 146.009 26.176 145.625 25.712ZM151.545 29.856V27.648H159.977V29.856H157.977V34.912C157.977 36.096 157.785 36.736 157.017 37.088C156.297 37.44 155.273 37.472 153.977 37.472C153.913 36.784 153.625 35.76 153.337 35.088C154.073 35.136 155.081 35.136 155.353 35.136C155.625 35.136 155.721 35.072 155.721 34.848V29.856H151.545ZM176.188 30.336V27.344H173.244V30.336H176.188ZM165.772 33.456V25.056H170.908V22.32H173.244V25.056H178.508V33.376H176.188V32.624H173.244V37.52H170.908V32.624H167.996V33.456H165.772ZM167.996 30.336H170.908V27.344H167.996V30.336Z" fill="white"/>
</g>
<defs>
<clipPath id="clip0_5_147">
<rect width="430" height="56" fill="white"/>
</clipPath>
</defs>
</svg>
