<svg width="430" height="46" viewBox="0 0 430 46" fill="none" xmlns="http://www.w3.org/2000/svg">
<rect x="19" y="22.5" width="99" height="1" fill="#5B89BB"/>
<rect x="141.5" y="18.7328" width="6.03473" height="6.03473" transform="rotate(45 141.5 18.7328)" stroke="#5B89BB" stroke-width="2"/>
<rect x="141.5" y="14.8856" width="11.4755" height="11.4755" transform="rotate(45 141.5 14.8856)" stroke="#5B89BB" stroke-width="2"/>
<path d="M174.659 21.336C174.593 24.108 174.197 27.54 172.151 29.938C171.887 29.586 171.293 28.97 170.941 28.728C172.767 26.396 173.031 23.096 173.031 20.654V17.662H171.249V15.946H173.911V13.042H175.759V15.946H178.333V16.958C178.993 15.792 179.477 14.384 179.785 12.932L181.501 13.328C181.325 14.01 181.171 14.692 180.907 15.33H185.307V17.024H180.247C179.983 17.618 179.675 18.168 179.323 18.696H183.745L184.119 18.608L185.175 19.4C184.537 20.5 183.613 21.732 182.733 22.634L182.755 23.206H185.395V24.834H182.755V28.09C182.755 28.926 182.623 29.454 182.007 29.718C181.479 30.004 180.621 30.026 179.433 30.026C179.367 29.542 179.103 28.794 178.883 28.332C179.697 28.354 180.489 28.354 180.731 28.354C180.973 28.354 181.039 28.288 181.039 28.068V24.834H178.421V23.206H181.039V21.578H181.699C181.941 21.27 182.227 20.896 182.491 20.522C182.557 20.412 182.601 20.346 182.689 20.236H179.059V19.092L178.905 19.29C178.619 18.96 177.915 18.388 177.541 18.124L177.717 17.882C177.761 17.816 177.805 17.75 177.893 17.662H174.681V19.664H177.981C177.981 19.928 177.981 20.258 177.959 20.434C177.849 26.506 177.717 28.64 177.255 29.3C176.947 29.74 176.595 29.938 176.089 29.982C175.671 30.07 174.989 30.07 174.329 30.048C174.263 29.542 174.109 28.794 173.889 28.376C174.461 28.442 174.989 28.442 175.253 28.442C175.473 28.464 175.605 28.42 175.737 28.178C176.001 27.76 176.111 26.066 176.265 21.336H174.659ZM166.123 31.104C166.893 30.466 167.817 29.674 168.653 28.816V23.47H166.387V21.578H170.545L170.523 28.618C171.469 30.18 173.185 30.884 175.451 30.972C177.937 31.082 182.975 31.016 185.659 30.818C185.461 31.258 185.175 32.16 185.065 32.754C182.601 32.864 177.981 32.908 175.473 32.82C172.833 32.71 171.029 31.962 169.731 30.29C168.939 31.192 168.081 32.094 167.113 33.062L166.123 31.104ZM166.365 14.56L167.927 13.526C169.049 14.626 170.303 16.144 170.809 17.244L169.115 18.388C168.653 17.31 167.443 15.704 166.365 14.56ZM210.194 17.86C209.864 16.826 208.94 15.286 208.082 14.164L209.556 13.372C210.436 14.472 211.382 15.924 211.734 16.936L210.194 17.86ZM192.418 31.874C193.54 29.19 193.672 25.406 193.672 22.678V16.65H197.61V13.042H199.48V14.274H204.056V15.66H199.48V16.65H203.198L203.484 16.606L204.65 16.804C204.518 17.662 204.276 18.63 204.056 19.4L205.772 19.158C205.64 17.266 205.574 15.242 205.508 13.13H207.356C207.378 15.132 207.444 17.09 207.554 18.916L211.624 18.344L211.844 20.148L207.664 20.72C207.818 22.634 208.016 24.394 208.28 25.868C209.072 24.416 209.688 22.81 210.15 21.226L211.646 22.106C211.03 24.306 210.062 26.506 208.786 28.464C209.204 29.916 209.644 30.774 210.15 30.796C210.502 30.818 210.766 29.696 210.876 27.606C211.14 28.046 211.954 28.64 212.284 28.816C211.844 32.314 210.964 33.194 210.128 33.172C208.962 33.128 208.082 32.094 207.444 30.312C206.542 31.412 205.53 32.38 204.474 33.084C204.166 32.732 203.77 32.292 203.396 31.962L200.932 32.292C198.886 32.556 196.95 32.798 195.454 32.974L195.234 31.456L200.602 30.84L200.338 30.796C200.58 30.158 200.844 29.212 200.998 28.596L202.626 28.838C202.384 29.52 202.142 30.136 201.922 30.686L204.232 30.422L204.21 30.884C205.156 30.158 206.036 29.234 206.828 28.156C206.366 26.198 206.08 23.756 205.86 20.962L203.88 21.226L203.726 20.082L202.384 19.796C202.494 19.334 202.626 18.674 202.758 18.014H199.106V19.224L202.23 18.916L202.362 20.016L199.106 20.368V20.874C199.106 21.292 199.172 21.358 199.722 21.358H201.746C202.12 21.358 202.23 21.248 202.296 20.5C202.582 20.742 203.132 20.896 203.506 20.984C203.374 22.15 202.978 22.458 201.922 22.458H199.59C197.984 22.458 197.632 22.172 197.632 20.852V20.5L195.806 20.698L195.652 19.554L197.632 19.356V18.014H195.366V22.678C195.366 25.67 195.102 30.114 193.738 32.996C193.54 32.688 192.77 32.072 192.418 31.874ZM195.586 24.438V23.162H204.276V24.438H195.586ZM196.246 28.596V25.252H203.528V28.596H196.246ZM196.994 28.926L198.38 28.64C198.71 29.3 198.952 30.158 199.04 30.752L197.588 31.038C197.522 30.488 197.28 29.586 196.994 28.926ZM197.808 27.562H201.878V26.264H197.808V27.562ZM219.328 31.214H238.138V32.622H219.328V31.214ZM219.35 24.328V22.986H227.6V21.996H220.934V20.83H227.6V19.862H221.462V18.696H227.6V17.684H219.394V16.474H227.6V15.528H221.594V14.362H227.6V13.02H229.624V14.362H235.85V16.474H238.028V17.684H235.85V19.862H229.624V20.83H236.664V21.996H229.624V22.986H238.138V24.328H219.35ZM221.726 30.334V25.164H235.894V30.334H221.726ZM223.684 29.256H227.688V28.266H223.684V29.256ZM223.684 27.21H227.688V26.242H223.684V27.21ZM229.58 29.256H233.848V28.266H229.58V29.256ZM229.58 27.21H233.848V26.242H229.58V27.21ZM229.624 18.696H233.848V17.684H229.624V18.696ZM229.624 16.474H233.848V15.528H229.624V16.474ZM261.396 20.632H258.712V30.224H261.396V20.632ZM245.886 16.342V14.406H264.432V16.342H255.984C255.94 16.496 255.896 16.694 255.83 16.87C255.654 17.508 255.456 18.168 255.28 18.762H263.442V33.26H261.396V32.116H248.724V33.26H246.788V18.762H253.212C253.366 18.014 253.542 17.134 253.674 16.342H245.886ZM248.724 30.224H251.276V20.632H248.724V30.224ZM253.08 30.224H256.908V28.046H253.08V30.224ZM253.08 26.418H256.908V24.328H253.08V26.418ZM253.08 22.7H256.908V20.632H253.08V22.7Z" fill="#5B89BB"/>
<rect x="289.5" y="18.7328" width="6.03473" height="6.03473" transform="rotate(45 289.5 18.7328)" stroke="#5B89BB" stroke-width="2"/>
<rect x="289.5" y="14.8856" width="11.4755" height="11.4755" transform="rotate(45 289.5 14.8856)" stroke="#5B89BB" stroke-width="2"/>
<rect x="313" y="22.5" width="99" height="1" fill="#5B89BB"/>
</svg>
